<svg width="40.000000" height="40.000000" viewBox="0 0 40 40" fill="none" xmlns="http://www.w3.org/2000/svg" xmlns:xlink="http://www.w3.org/1999/xlink">
	<desc>
			Created with Pixso.
	</desc>
	<defs>
		<clipPath id="clip232_4582">
			<rect id="fontisto:american-express" rx="0.000000" width="38.333332" height="38.333332" transform="translate(0.833333 0.833333)" fill="white" fill-opacity="0"/>
		</clipPath>
	</defs>
	<rect id="fontisto:american-express" rx="0.000000" width="38.333332" height="38.333332" transform="translate(0.833333 0.833333)" fill="#FFFFFF" fill-opacity="0"/>
	<g clip-path="url(#clip232_4582)">
		<path id="Vector" d="M37.33 33.33L2.66 33.33C1.95 33.33 1.28 33.04 0.78 32.54C0.28 32.04 -0.01 31.37 -0.01 30.66L-0.01 19.44L1.92 19.44L2.35 18.39L3.32 18.39L3.75 19.44L7.53 19.44L7.53 18.64L7.87 19.44L9.83 19.44L10.17 18.63L10.17 19.44L19.56 19.44L19.56 17.72L19.74 17.72C19.87 17.73 19.9 17.74 19.9 17.95L19.9 19.44L24.76 19.44L24.76 19.04C25.26 19.3 25.84 19.44 26.46 19.44L26.57 19.44L26.56 19.44L28.61 19.44L29.05 18.4L30.02 18.4L30.44 19.44L34.38 19.44L34.38 18.45L34.98 19.44L38.13 19.44L38.13 12.88L35.01 12.88L35.01 13.66L34.58 12.88L31.37 12.88L31.37 13.66L30.97 12.88L26.64 12.88C25.98 12.85 25.33 12.98 24.74 13.27L24.76 13.26L24.76 12.88L21.78 12.88L21.78 13.26C21.41 12.98 20.96 12.84 20.5 12.88L20.51 12.88L9.59 12.88L8.86 14.58L8.11 12.88L4.67 12.88L4.67 13.66L4.29 12.88L1.36 12.88L0 16L0 9.33C0 8.62 0.28 7.94 0.78 7.44C1.28 6.94 1.96 6.66 2.66 6.66L37.33 6.66C38.04 6.66 38.72 6.94 39.22 7.44C39.72 7.94 40 8.62 40 9.33L40 20.97L37.92 20.97C37.88 20.97 37.84 20.97 37.8 20.97C37.32 20.97 36.87 21.11 36.5 21.36L36.51 21.36L36.51 20.97L33.43 20.97C32.95 20.95 32.48 21.08 32.08 21.36L32.09 21.36L32.09 20.97L26.59 20.97L26.59 21.36C26.14 21.1 25.64 20.97 25.12 20.97L25.08 20.97L25.08 20.97L21.45 20.97L21.45 21.36C20.98 21.05 20.42 20.92 19.86 20.97L19.87 20.97L15.81 20.97L14.88 21.98L14.01 20.97L7.95 20.97L7.95 27.54L13.9 27.54L14.86 26.51L15.76 27.54L19.42 27.54L19.42 26L19.93 26C20.42 26.02 20.91 25.94 21.37 25.76L21.35 25.77L21.35 27.54L24.37 27.54L24.37 25.83L24.52 25.83C24.7 25.83 24.72 25.83 24.72 26.02L24.72 27.54L33.9 27.54L34.02 27.54C34.54 27.54 35.03 27.38 35.44 27.11L35.43 27.12L35.43 27.54L38.35 27.54L38.49 27.54C39.03 27.54 39.55 27.43 40.02 27.23L40 27.24L40 30.66C40 31.37 39.71 32.05 39.21 32.55C38.71 33.05 38.04 33.33 37.33 33.33L37.33 33.33ZM23.44 26.62L22.31 26.62L22.31 21.91L24.91 21.91C25.38 21.87 25.85 21.95 26.28 22.14L26.26 22.13C26.61 22.32 26.84 22.69 26.84 23.11L26.84 23.18L26.84 23.18L26.84 23.22C26.84 23.76 26.51 24.22 26.05 24.42L26.04 24.43C26.26 24.51 26.45 24.65 26.59 24.82L26.59 24.83C26.75 25.08 26.81 25.39 26.78 25.69L26.78 25.68L26.78 26.61L25.65 26.61L25.65 26.03C25.7 25.7 25.64 25.38 25.47 25.1L25.47 25.1C25.35 25.01 25.22 24.95 25.08 24.91C24.93 24.88 24.79 24.87 24.64 24.9L24.65 24.9L23.44 24.9L23.44 26.61L23.44 26.62ZM23.44 22.88L23.44 23.94L24.81 23.94C25 23.96 25.2 23.92 25.37 23.84L25.37 23.84C25.44 23.8 25.5 23.73 25.54 23.66C25.58 23.58 25.6 23.5 25.6 23.41L25.6 23.39C25.6 23.3 25.59 23.22 25.55 23.15C25.5 23.07 25.44 23.01 25.37 22.97L25.37 22.97C25.2 22.89 25.01 22.86 24.83 22.88L24.83 22.88L23.44 22.88ZM13.42 26.61L8.96 26.61L8.96 21.91L13.49 21.91L14.87 23.45L16.3 21.91L19.89 21.91C21.17 21.91 21.79 22.42 21.79 23.46C21.79 24.52 21.15 25.04 19.83 25.04L18.43 25.04L18.43 26.61L16.24 26.61L14.86 25.06L13.42 26.61ZM17.31 22.41L15.58 24.27L17.31 26.19L17.31 22.41ZM10.09 24.7L10.09 25.63L12.85 25.63L14.13 24.25L12.9 22.88L10.08 22.88L10.08 23.74L12.55 23.74L12.55 24.7L10.09 24.7ZM18.43 22.88L18.43 24.08L19.88 24.08C20.32 24.08 20.58 23.85 20.58 23.46C20.58 23.08 20.34 22.88 19.89 22.88L18.43 22.88ZM38.47 26.62L36.3 26.62L36.3 25.61L38.46 25.61C38.62 25.63 38.79 25.58 38.92 25.49L38.92 25.49C38.96 25.45 38.99 25.4 39.01 25.35C39.04 25.3 39.05 25.24 39.05 25.19L39.05 25.17C39.05 25.11 39.04 25.06 39.01 25C38.99 24.95 38.95 24.91 38.91 24.87C38.8 24.79 38.65 24.75 38.51 24.77L38.52 24.77L38.31 24.76C37.29 24.74 36.14 24.7 36.14 23.31C36.14 22.63 36.57 21.91 37.75 21.91L40 21.91L40 22.91L37.95 22.91C37.79 22.89 37.63 22.93 37.49 23L37.49 23C37.44 23.04 37.39 23.09 37.36 23.15C37.34 23.21 37.32 23.27 37.33 23.34L37.33 23.33L37.33 23.35C37.33 23.42 37.35 23.5 37.4 23.56C37.44 23.62 37.5 23.66 37.57 23.69L37.58 23.69C37.72 23.73 37.86 23.75 38.01 23.74L38.01 23.74L38.62 23.75C39.08 23.71 39.54 23.85 39.9 24.14L39.89 24.13C39.93 24.16 39.96 24.19 39.98 24.22L39.98 24.22L40 26.01C39.81 26.23 39.57 26.4 39.3 26.51C39.04 26.61 38.75 26.65 38.46 26.62L38.47 26.62ZM34.08 26.62L31.89 26.62L31.89 25.61L34.07 25.61C34.23 25.63 34.4 25.58 34.53 25.49L34.53 25.49C34.57 25.45 34.6 25.4 34.63 25.35C34.65 25.3 34.66 25.24 34.66 25.19L34.66 25.17C34.66 25.12 34.65 25.06 34.62 25.01C34.6 24.96 34.57 24.91 34.52 24.87C34.41 24.79 34.26 24.75 34.12 24.77L34.12 24.77L33.92 24.76C32.9 24.74 31.75 24.7 31.75 23.31C31.75 22.63 32.18 21.91 33.36 21.91L35.62 21.91L35.62 22.91L33.55 22.91C33.4 22.9 33.24 22.93 33.1 23L33.1 23C33.04 23.04 33 23.1 32.97 23.16C32.94 23.23 32.93 23.3 32.94 23.37C32.94 23.44 32.97 23.5 33.01 23.56C33.05 23.62 33.11 23.66 33.18 23.69L33.18 23.69C33.32 23.73 33.47 23.75 33.62 23.74L33.62 23.74L34.22 23.76C34.68 23.71 35.15 23.85 35.51 24.14L35.51 24.14C35.63 24.27 35.72 24.43 35.78 24.6C35.84 24.78 35.86 24.96 35.84 25.14L35.84 25.13C35.84 26.11 35.25 26.61 34.08 26.61L34.08 26.62ZM31.22 26.62L27.46 26.62L27.46 21.91L31.21 21.91L31.21 22.88L28.58 22.88L28.58 23.74L31.15 23.74L31.15 24.7L28.58 24.7L28.58 25.63L31.22 25.64L31.22 26.61L31.22 26.62ZM33.41 18.52L31.12 18.52L30.68 17.47L28.34 17.47L27.92 18.52L26.6 18.52C26.01 18.55 25.43 18.37 24.97 18L24.97 18C24.75 17.76 24.59 17.47 24.48 17.16C24.38 16.85 24.34 16.52 24.37 16.2L24.37 16.2C24.34 15.87 24.38 15.54 24.49 15.22C24.59 14.91 24.76 14.61 24.98 14.36L24.98 14.37C25.21 14.16 25.48 14.01 25.78 13.91C26.07 13.82 26.39 13.79 26.69 13.82L26.69 13.82L27.77 13.82L27.77 14.82L26.71 14.82C26.55 14.8 26.39 14.82 26.24 14.86C26.09 14.91 25.96 14.99 25.84 15.1L25.84 15.1C25.6 15.4 25.49 15.79 25.52 16.17L25.52 16.16C25.48 16.56 25.59 16.95 25.83 17.27L25.83 17.27C26.05 17.45 26.33 17.54 26.62 17.51L26.61 17.51L27.12 17.51L28.71 13.81L30.39 13.81L32.3 18.25L32.3 13.81L34.01 13.81L35.99 17.09L35.99 13.81L37.14 13.81L37.14 18.51L35.54 18.51L33.4 14.98L33.4 18.51L33.41 18.52ZM29.52 14.61L28.74 16.49L30.3 16.49L29.52 14.61ZM18.63 18.52L17.51 18.52L17.51 13.82L20.09 13.82C20.56 13.76 21.04 13.85 21.47 14.05L21.45 14.04C21.63 14.14 21.77 14.28 21.87 14.45C21.97 14.62 22.03 14.81 22.03 15.01L22.02 15.08L22.02 15.08L22.02 15.12C22.02 15.37 21.95 15.62 21.81 15.84C21.67 16.06 21.47 16.23 21.24 16.33L21.23 16.33C21.45 16.42 21.64 16.56 21.78 16.73L21.79 16.73C21.95 16.99 22.01 17.3 21.97 17.6L21.97 17.59L21.97 18.52L20.84 18.52L20.83 17.92L20.83 17.83C20.87 17.55 20.81 17.25 20.65 17L20.66 17.01C20.54 16.92 20.41 16.86 20.26 16.83C20.12 16.79 19.97 16.78 19.83 16.81L19.84 16.81L18.63 16.81L18.63 18.52L18.63 18.52ZM18.63 14.79L18.63 15.84L19.99 15.84C20.19 15.86 20.38 15.82 20.56 15.74L20.55 15.74C20.62 15.7 20.68 15.64 20.72 15.56C20.76 15.49 20.78 15.41 20.78 15.33L20.78 15.29C20.79 15.21 20.77 15.13 20.73 15.05C20.69 14.98 20.62 14.92 20.55 14.88L20.55 14.88C20.38 14.81 20.19 14.78 20.01 14.79L20.01 14.79L18.63 14.79ZM6.72 18.52L4.44 18.52L4.01 17.47L1.66 17.47L1.23 18.52L0.01 18.52L2.02 13.82L3.69 13.82L5.6 18.27L5.6 13.82L7.44 13.82L8.91 17L10.26 13.82L12.13 13.82L12.13 18.52L10.98 18.52L10.98 14.84L9.35 18.52L8.36 18.52L6.72 14.83L6.72 18.52L6.72 18.52ZM2.83 14.61L2.06 16.49L3.6 16.49L2.83 14.61ZM23.82 18.52L22.67 18.52L22.67 13.82L23.82 13.82L23.82 18.52L23.82 18.52ZM16.72 18.52L12.97 18.52L12.97 13.82L16.73 13.82L16.73 14.79L14.1 14.79L14.1 15.64L16.66 15.64L16.66 16.61L14.09 16.61L14.09 17.55L16.73 17.55L16.73 18.52L16.72 18.52Z" fill="#FFFFFF" fill-opacity="0.500000" fill-rule="nonzero"/>
	</g>
</svg>
