<svg width="40.000000" height="40.000000" viewBox="0 0 40 40" fill="none" xmlns="http://www.w3.org/2000/svg" xmlns:xlink="http://www.w3.org/1999/xlink">
	<desc>
			Created with Pixso.
	</desc>
	<defs>
		<clipPath id="clip232_4576">
			<rect id="brandico:mastercard" rx="0.000000" width="38.333332" height="38.333332" transform="translate(0.833333 0.833333)" fill="white" fill-opacity="0"/>
		</clipPath>
	</defs>
	<rect id="brandico:mastercard" rx="0.000000" width="38.333332" height="38.333332" transform="translate(0.833333 0.833333)" fill="#FFFFFF" fill-opacity="0"/>
	<g clip-path="url(#clip232_4576)">
		<path id="Vector" d="M1.86 6.66C0.83 6.66 -0.01 7.54 -0.01 8.64L-0.01 31.35C-0.01 32.44 0.83 33.33 1.86 33.33L38.13 33.33C39.16 33.33 39.99 32.44 39.99 31.35L39.99 8.64C39.99 7.54 39.16 6.66 38.13 6.66L1.86 6.66L1.86 6.66ZM13.11 9.87C15.39 9.87 17.49 10.71 19.14 12.12C17.75 13.44 16.72 15.16 16.21 17.12L17.01 17.12C17.48 15.51 18.33 14.07 19.46 12.93C20.59 14.07 21.44 15.51 21.91 17.12L22.72 17.12C22.21 15.17 21.17 13.46 19.79 12.15C21.44 10.72 23.54 9.87 25.83 9.87C31.13 9.87 35.42 14.42 35.42 20.04C35.42 25.66 31.13 30.21 25.83 30.21C23.5 30.21 21.37 29.33 19.7 27.86C21.19 26.49 22.29 24.65 22.79 22.56L22.01 22.56C21.56 24.31 20.66 25.88 19.46 27.1C18.25 25.88 17.36 24.31 16.91 22.56L16.17 22.56C16.67 24.62 17.76 26.43 19.22 27.79C17.56 29.24 15.43 30.12 13.11 30.12C7.82 30.12 3.53 25.58 3.53 19.99C3.53 14.4 7.82 9.87 13.11 9.87ZM25.12 17.02C23.96 17.02 22.84 18.09 22.84 20.09C22.84 21.42 23.45 22.3 24.64 22.3C24.98 22.3 25.51 22.16 25.51 22.16L25.69 21C25.69 21 25.2 21.26 24.86 21.26C24.16 21.26 23.87 20.68 23.87 20.06C23.87 18.8 24.48 18.11 25.16 18.11C25.67 18.11 26.08 18.41 26.08 18.41L26.24 17.28C26.24 17.28 25.63 17.02 25.12 17.02ZM34.79 17.12L33.79 17.12L33.58 18.52C33.58 18.52 33.2 17.98 32.61 17.98C31.7 17.98 30.94 19.13 30.94 20.46C30.94 21.32 31.34 22.16 32.17 22.16C32.77 22.16 33.1 21.72 33.1 21.72L33.06 22.09L34.03 22.09L34.79 17.12ZM6.12 17.13L5.32 22.12L6.28 22.12L6.89 18.36L6.98 22.12L7.67 22.12L8.95 18.36L8.38 22.12L9.4 22.12L10.19 17.13L8.61 17.13L7.62 20.19L7.57 17.13L6.12 17.13L6.12 17.13ZM16.16 17.46C16.14 17.48 15.58 20.91 15.58 21.32C15.58 21.94 15.9 22.22 16.36 22.21C16.69 22.21 16.95 22.12 17.06 22.08C17.08 22.08 17.1 22.07 17.1 22.07L17.22 21.18C17.16 21.18 17.06 21.21 16.97 21.21C16.63 21.21 16.59 21.02 16.61 20.87L16.89 19.06L17.41 19.06L17.54 18.07L17.04 18.07L17.14 17.46L16.16 17.46ZM27.78 17.96C27.11 17.96 26.59 18.19 26.59 18.19L26.45 19.11C26.45 19.11 26.87 18.92 27.52 18.92C27.88 18.92 28.15 18.97 28.15 19.29C28.15 19.48 28.12 19.56 28.12 19.56C28.12 19.56 27.83 19.53 27.69 19.53C26.85 19.53 25.96 19.92 25.96 21.11C25.96 22.04 26.54 22.25 26.9 22.25C27.59 22.25 27.89 21.77 27.91 21.76L27.88 22.17L28.74 22.17L29.12 19.24C29.12 18 28.12 17.96 27.78 17.96L27.78 17.96ZM11.62 17.96C10.95 17.96 10.43 18.2 10.43 18.2L10.29 19.11C10.29 19.11 10.72 18.93 11.36 18.93C11.72 18.93 11.99 18.97 11.99 19.29C11.99 19.49 11.96 19.56 11.96 19.56C11.96 19.56 11.67 19.53 11.54 19.53C10.69 19.53 9.8 19.93 9.8 21.11C9.8 22.04 10.38 22.26 10.74 22.26C11.44 22.26 11.74 21.77 11.75 21.77L11.72 22.17L12.58 22.17L12.97 19.25C12.97 18 11.97 17.96 11.62 17.96L11.62 17.96ZM14.68 17.96C13.95 17.96 13.22 18.27 13.22 19.33C13.22 20.53 14.44 20.41 14.44 20.91C14.44 21.25 14.1 21.28 13.84 21.28C13.38 21.28 12.97 21.11 12.97 21.12L12.84 22.04C12.86 22.04 13.12 22.16 13.94 22.16C14.16 22.16 15.42 22.22 15.42 20.83C15.42 19.53 14.25 19.79 14.25 19.27C14.25 19.01 14.44 18.92 14.79 18.92C14.92 18.92 15.46 18.97 15.46 18.97L15.58 18.05C15.58 18.05 15.24 17.96 14.68 17.96ZM19.2 17.96C18.19 17.96 17.45 19.11 17.45 20.41C17.45 21.9 18.38 22.26 19.17 22.26C19.91 22.26 20.23 22.08 20.23 22.08L20.41 21.06C20.41 21.06 19.85 21.32 19.34 21.32C18.27 21.32 18.46 20.48 18.46 20.48L20.49 20.48C20.49 20.48 20.62 19.79 20.62 19.51C20.62 18.81 20.29 17.96 19.2 17.96ZM22.84 18.01C22.38 18.01 22.05 18.65 22.05 18.65L22.14 18.06L21.2 18.06L20.57 22.16L21.6 22.16C21.9 20.41 21.95 18.99 22.65 19.25C22.78 18.57 22.9 18.31 23.03 18.02C23.03 18.02 22.97 18.01 22.84 18.01ZM31.25 18.01C30.8 18.01 30.46 18.65 30.46 18.65L30.55 18.06L29.61 18.06L28.98 22.16L30.02 22.16C30.31 20.41 30.37 18.99 31.07 19.25C31.19 18.57 31.31 18.31 31.45 18.02C31.45 18.02 31.38 18.01 31.25 18.01ZM19.19 18.89C19.76 18.89 19.66 19.57 19.66 19.63L18.53 19.63C18.53 19.56 18.64 18.89 19.19 18.89ZM32.77 18.97C33.13 18.97 33.32 19.23 33.32 19.84C33.32 20.4 33.06 21.14 32.51 21.14C32.15 21.14 31.98 20.82 31.98 20.32C31.98 19.5 32.33 18.97 32.77 18.97ZM27.78 20.36C27.93 20.36 27.96 20.38 27.98 20.38C27.98 20.38 27.98 20.38 27.99 20.39C28.01 20.57 27.89 21.42 27.3 21.42C26.99 21.42 26.91 21.16 26.91 21.01C26.91 20.72 27.06 20.36 27.78 20.36ZM11.62 20.36C11.79 20.36 11.81 20.38 11.84 20.39C11.86 20.57 11.73 21.42 11.14 21.42C10.83 21.42 10.75 21.17 10.75 21.02C10.75 20.72 10.9 20.36 11.62 20.36Z" fill="#FFFFFF" fill-opacity="0.500000" fill-rule="nonzero"/>
	</g>
</svg>
