<svg width="40.000000" height="40.000000" viewBox="0 0 40 40" fill="none" xmlns="http://www.w3.org/2000/svg" xmlns:xlink="http://www.w3.org/1999/xlink">
	<desc>
			Created with Pixso.
	</desc>
	<defs>
		<clipPath id="clip232_4580">
			<rect id="fontisto:paypal" rx="0.000000" width="38.333332" height="38.333332" transform="translate(0.833333 0.833333)" fill="white" fill-opacity="0"/>
		</clipPath>
	</defs>
	<rect id="fontisto:paypal" rx="0.000000" width="38.333332" height="38.333332" transform="translate(0.833333 0.833333)" fill="#FFFFFF" fill-opacity="0"/>
	<g clip-path="url(#clip232_4580)">
		<path id="Vector" d="M37.33 33.33L2.66 33.33C1.95 33.33 1.28 33.04 0.78 32.54C0.28 32.04 0 31.37 0 30.66L0 9.33C0 8.62 0.28 7.94 0.78 7.44C1.28 6.94 1.95 6.66 2.66 6.66L37.33 6.66C38.04 6.66 38.71 6.94 39.21 7.44C39.71 7.94 40 8.62 40 9.33L40 30.66C40 31.37 39.71 32.04 39.21 32.54C38.71 33.04 38.04 33.33 37.33 33.33ZM15.59 18.13C15.56 18.13 15.53 18.14 15.5 18.15C15.47 18.16 15.45 18.18 15.43 18.21C15.39 18.25 15.36 18.31 15.36 18.38C15.36 18.4 15.47 18.73 15.7 19.41L16.21 20.89L16.44 21.57C16.7 22.34 16.84 22.75 16.85 22.8C16.33 23.44 15.87 24.12 15.45 24.83L15.41 24.91L15.41 24.94C15.41 25.05 15.5 25.14 15.61 25.14L15.64 25.14L15.64 25.14L16.99 25.14C17.06 25.14 17.12 25.12 17.17 25.09C17.23 25.06 17.27 25.01 17.31 24.96L17.31 24.96L21.79 18.5C21.81 18.46 21.83 18.43 21.83 18.39L21.82 18.37L21.82 18.37C21.82 18.31 21.8 18.25 21.75 18.2C21.74 18.18 21.71 18.16 21.68 18.15C21.66 18.13 21.63 18.13 21.6 18.13L20.24 18.13C20.18 18.13 20.12 18.14 20.06 18.17C20.01 18.21 19.96 18.25 19.93 18.3L19.93 18.31L18.06 21.04L17.29 18.41C17.27 18.33 17.22 18.26 17.16 18.21C17.09 18.16 17.01 18.13 16.93 18.13L16.9 18.13L16.9 18.13L15.59 18.13ZM31.12 18.01L31.09 18.01C30.25 18.01 29.49 18.37 28.97 18.95L28.97 18.96C28.39 19.55 28.08 20.34 28.08 21.16L28.08 21.19L28.08 21.19C28.07 21.22 28.07 21.26 28.07 21.3C28.07 21.89 28.31 22.44 28.68 22.84L28.68 22.84C28.9 23.05 29.15 23.21 29.43 23.32C29.72 23.42 30.01 23.47 30.31 23.45L30.31 23.45C30.68 23.45 31.04 23.37 31.36 23.24L31.35 23.24C31.67 23.12 31.95 22.93 32.17 22.68L32.17 22.68C32.16 22.74 32.15 22.8 32.13 22.85L32.14 22.83C32.12 22.9 32.1 22.97 32.1 23.04L32.1 23.05C32.1 23.23 32.18 23.33 32.33 23.33L33.54 23.33C33.59 23.33 33.64 23.33 33.68 23.31C33.73 23.3 33.77 23.27 33.81 23.24C33.84 23.21 33.87 23.17 33.89 23.13C33.91 23.09 33.93 23.04 33.93 23L33.93 23L34.65 18.41C34.66 18.37 34.65 18.34 34.65 18.31C34.64 18.27 34.62 18.24 34.6 18.21C34.58 18.18 34.55 18.16 34.52 18.15C34.49 18.13 34.46 18.12 34.42 18.12L33.09 18.12C32.92 18.12 32.82 18.32 32.79 18.7C32.59 18.45 32.33 18.26 32.04 18.13C31.75 18.01 31.42 17.97 31.11 18.01L31.12 18L31.12 18.01ZM11.16 18.01L11.13 18.01C10.29 18.01 9.53 18.37 9.01 18.95L9.01 18.96C8.44 19.55 8.12 20.34 8.12 21.16L8.12 21.19L8.12 21.19C8.1 21.49 8.15 21.79 8.26 22.08C8.36 22.36 8.52 22.62 8.73 22.84L8.73 22.84C9.12 23.22 9.66 23.45 10.25 23.45L10.36 23.45L10.35 23.45C10.72 23.45 11.07 23.37 11.39 23.23L11.37 23.24C11.7 23.11 11.99 22.92 12.21 22.68L12.22 22.68C12.17 22.79 12.15 22.91 12.15 23.04L12.15 23.05C12.15 23.23 12.22 23.33 12.37 23.33L13.59 23.33C13.63 23.33 13.68 23.33 13.73 23.31C13.77 23.3 13.81 23.27 13.85 23.24C13.89 23.21 13.91 23.17 13.94 23.13C13.96 23.09 13.97 23.04 13.97 23L13.97 23L14.69 18.41C14.7 18.37 14.7 18.34 14.69 18.31C14.68 18.27 14.66 18.24 14.64 18.21C14.62 18.19 14.59 18.16 14.56 18.15C14.53 18.13 14.5 18.13 14.47 18.13L13.13 18.13C12.97 18.13 12.86 18.32 12.83 18.71C12.63 18.46 12.37 18.26 12.08 18.14C11.79 18.02 11.47 17.97 11.15 18.01L11.16 18.01L11.16 18.01ZM36.23 15.55L36.21 15.55C36.16 15.55 36.11 15.57 36.07 15.6C36.03 15.64 36.01 15.69 36 15.74L34.86 23.05C34.85 23.08 34.85 23.12 34.86 23.16C34.87 23.19 34.89 23.23 34.91 23.25C34.93 23.28 34.96 23.3 34.99 23.31C35.02 23.32 35.05 23.33 35.08 23.33L36.25 23.33L36.29 23.33C36.37 23.33 36.46 23.3 36.52 23.24C36.58 23.17 36.62 23.09 36.62 23L36.62 23L37.76 15.81L37.76 15.79C37.76 15.73 37.74 15.66 37.7 15.61L37.7 15.61C37.68 15.59 37.66 15.58 37.63 15.57C37.6 15.55 37.57 15.55 37.55 15.55L37.53 15.55L36.23 15.55ZM23.26 15.55C23.22 15.54 23.17 15.55 23.12 15.56C23.08 15.57 23.03 15.6 23 15.63C22.96 15.66 22.93 15.7 22.91 15.74C22.89 15.78 22.88 15.83 22.88 15.88L21.74 23.05C21.73 23.08 21.73 23.12 21.74 23.15C21.75 23.18 21.77 23.22 21.79 23.24C21.81 23.27 21.83 23.29 21.86 23.31C21.89 23.32 21.93 23.33 21.96 23.33L23.41 23.33C23.48 23.33 23.54 23.31 23.59 23.27C23.64 23.23 23.68 23.17 23.69 23.1L23.69 23.1L24 21.07C24.01 20.98 24.06 20.89 24.13 20.84C24.2 20.78 24.3 20.74 24.39 20.72L24.4 20.72C24.49 20.71 24.59 20.7 24.69 20.7C24.79 20.7 24.9 20.7 25.03 20.71C25.17 20.73 25.31 20.74 25.45 20.74C26.27 20.74 27.05 20.43 27.65 19.88L27.65 19.88C27.94 19.56 28.17 19.19 28.32 18.78C28.47 18.37 28.53 17.94 28.51 17.51L28.51 17.52C28.53 17.23 28.48 16.94 28.36 16.68C28.25 16.42 28.06 16.19 27.83 16.02L27.83 16.01C27.3 15.68 26.68 15.51 26.05 15.55L26.06 15.55L23.26 15.55ZM3.28 15.55C3.24 15.54 3.19 15.55 3.15 15.56C3.1 15.58 3.06 15.6 3.03 15.63C2.99 15.66 2.96 15.7 2.94 15.74C2.93 15.79 2.92 15.83 2.92 15.88L2.92 15.88L1.77 23.05C1.77 23.08 1.77 23.12 1.78 23.15C1.79 23.19 1.8 23.22 1.83 23.24C1.85 23.27 1.87 23.29 1.9 23.31C1.93 23.33 1.96 23.33 2 23.33L3.34 23.33C3.38 23.34 3.43 23.33 3.48 23.32C3.52 23.31 3.57 23.28 3.6 23.25C3.64 23.22 3.67 23.18 3.69 23.14C3.71 23.1 3.72 23.05 3.72 23L4.04 21.07C4.05 20.98 4.09 20.9 4.16 20.84C4.24 20.78 4.33 20.74 4.43 20.73L4.43 20.73C4.53 20.71 4.63 20.7 4.73 20.7L4.73 20.7C4.82 20.7 4.93 20.7 5.06 20.72C5.2 20.73 5.34 20.74 5.49 20.74C6.33 20.74 7.1 20.41 7.68 19.88L7.68 19.88C7.98 19.57 8.21 19.19 8.36 18.79C8.5 18.38 8.57 17.94 8.54 17.51L8.54 17.52C8.56 17.23 8.51 16.94 8.4 16.68C8.28 16.42 8.1 16.19 7.87 16.02L7.86 16.02C7.34 15.68 6.72 15.52 6.09 15.55L6.1 15.55L3.28 15.55ZM31.04 22.03L30.99 22.03C30.71 22.03 30.43 21.93 30.22 21.75L30.22 21.75C30.12 21.66 30.04 21.55 29.98 21.42C29.93 21.3 29.9 21.16 29.9 21.02L29.9 20.98L29.9 20.94C29.9 20.53 30.07 20.15 30.34 19.88C30.61 19.6 30.98 19.43 31.4 19.43L31.43 19.43L31.43 19.43L31.47 19.43C31.77 19.43 32.04 19.54 32.25 19.73L32.25 19.72C32.35 19.82 32.43 19.93 32.49 20.06C32.54 20.19 32.57 20.33 32.57 20.47L32.57 20.53L32.57 20.52L32.57 20.55C32.57 20.96 32.4 21.33 32.13 21.59C31.99 21.73 31.82 21.84 31.64 21.92C31.46 21.99 31.27 22.03 31.07 22.03L31.05 22.03L31.04 22.03ZM11.07 22.03L11.01 22.03C10.72 22.03 10.45 21.93 10.25 21.75L10.25 21.75C10.15 21.66 10.07 21.54 10.02 21.42C9.97 21.3 9.94 21.16 9.94 21.03L9.94 20.98L9.94 20.94C9.94 20.53 10.11 20.15 10.38 19.88C10.65 19.6 11.02 19.43 11.44 19.43L11.47 19.43L11.47 19.43L11.51 19.43C11.81 19.43 12.08 19.54 12.29 19.73L12.29 19.72C12.39 19.82 12.47 19.93 12.53 20.06C12.59 20.19 12.61 20.33 12.61 20.47L12.61 20.53L12.61 20.52L12.61 20.56C12.61 20.97 12.44 21.34 12.17 21.6C11.88 21.88 11.5 22.03 11.11 22.03L11.07 22.03ZM24.3 19.19L24.6 17.31C24.6 17.28 24.61 17.25 24.62 17.23C24.63 17.2 24.65 17.18 24.67 17.16C24.69 17.15 24.72 17.13 24.74 17.12C24.77 17.12 24.8 17.11 24.83 17.12L25.14 17.12L25.21 17.11C25.4 17.11 25.59 17.13 25.78 17.15L25.76 17.15C25.93 17.18 26.08 17.26 26.2 17.37C26.26 17.43 26.32 17.51 26.35 17.6C26.39 17.68 26.41 17.77 26.41 17.86L26.41 17.91L26.41 17.91C26.43 18.09 26.41 18.28 26.34 18.45C26.27 18.63 26.16 18.78 26.02 18.91L26.02 18.91C25.67 19.11 25.26 19.2 24.85 19.17L24.86 19.17L24.3 19.19L24.3 19.19ZM4.32 19.19L4.62 17.31C4.62 17.28 4.63 17.25 4.64 17.23C4.66 17.2 4.67 17.18 4.69 17.16C4.72 17.15 4.74 17.13 4.77 17.12C4.79 17.12 4.82 17.11 4.85 17.12L5.18 17.12C5.54 17.09 5.89 17.16 6.21 17.32L6.2 17.32C6.41 17.45 6.48 17.74 6.41 18.17C6.41 18.33 6.36 18.49 6.28 18.63C6.2 18.77 6.09 18.89 5.96 18.98L5.95 18.98C5.43 19.17 4.86 19.24 4.31 19.19L4.32 19.19Z" fill="#FFFFFF" fill-opacity="0.500000" fill-rule="nonzero"/>
	</g>
</svg>
