<svg width="40.000000" height="40.000000" viewBox="0 0 40 40" fill="none" xmlns="http://www.w3.org/2000/svg" xmlns:xlink="http://www.w3.org/1999/xlink">
	<desc>
			Created with Pixso.
	</desc>
	<defs>
		<clipPath id="clip232_4578">
			<rect id="fa:cc-visa" rx="0.000000" width="38.333332" height="38.333332" transform="translate(0.833333 0.833333)" fill="white" fill-opacity="0"/>
		</clipPath>
	</defs>
	<rect id="fa:cc-visa" rx="0.000000" width="38.333332" height="38.333332" transform="translate(0.833333 0.833333)" fill="#FFFFFF" fill-opacity="0"/>
	<g clip-path="url(#clip232_4578)">
		<path id="Vector" d="M34.28 21.62L31.89 21.62C32.05 21.2 32.43 20.16 33.03 18.52L33.09 18.36C33.13 18.25 33.19 18.09 33.26 17.91C33.33 17.72 33.38 17.57 33.41 17.46L33.62 18.41L34.28 21.62ZM9.21 20.5L8.21 15.37C8.08 14.75 7.65 14.44 6.9 14.44L2.25 14.44L2.22 14.66C5.82 15.58 8.15 17.52 9.21 20.5ZM12.32 14.44L9.51 22.04L9.21 20.5C8.91 19.69 8.42 18.94 7.74 18.25C7.06 17.56 6.3 17.05 5.46 16.71L7.81 25.57L10.85 25.57L15.38 14.44L12.32 14.44ZM14.73 25.58L17.62 25.58L19.42 14.44L16.54 14.44L14.73 25.58ZM28.07 14.71C27.27 14.4 26.41 14.25 25.48 14.25C24.06 14.25 22.89 14.59 21.99 15.27C21.09 15.95 20.63 16.84 20.62 17.93C20.61 19.11 21.45 20.11 23.14 20.95C23.69 21.21 24.08 21.45 24.3 21.66C24.52 21.87 24.63 22.09 24.63 22.34C24.63 22.68 24.46 22.95 24.11 23.14C23.76 23.32 23.36 23.41 22.91 23.41C21.92 23.41 21.01 23.22 20.2 22.84L19.82 22.65L19.42 25.15C20.28 25.54 21.35 25.74 22.63 25.74C24.14 25.75 25.35 25.41 26.25 24.71C27.16 24.02 27.63 23.09 27.65 21.94C27.65 20.71 26.84 19.7 25.22 18.92C24.65 18.63 24.24 18.38 23.99 18.19C23.73 17.99 23.61 17.77 23.61 17.53C23.61 17.27 23.75 17.05 24.03 16.86C24.31 16.67 24.72 16.57 25.26 16.57C26.07 16.56 26.78 16.7 27.41 16.99L27.67 17.13L28.07 14.71ZM35.45 14.44L33.22 14.44C32.47 14.44 31.97 14.75 31.71 15.37L27.44 25.58L30.46 25.58L31.07 23.92L34.75 23.92C34.81 24.17 34.93 24.73 35.1 25.58L37.77 25.58L35.45 14.44ZM40 8.88L40 31.1C40 31.71 39.78 32.23 39.34 32.67C38.9 33.11 38.37 33.33 37.77 33.33L2.22 33.33C1.62 33.33 1.09 33.11 0.65 32.67C0.21 32.23 0 31.71 0 31.1L0 8.88C0 8.28 0.21 7.76 0.65 7.32C1.09 6.88 1.62 6.66 2.22 6.66L37.77 6.66C38.37 6.66 38.9 6.88 39.34 7.32C39.78 7.76 40 8.28 40 8.88Z" fill="#FFFFFF" fill-opacity="0.500000" fill-rule="nonzero"/>
	</g>
</svg>
