<svg width="24.000000" height="24.000000" viewBox="0 0 24 24" fill="none" xmlns="http://www.w3.org/2000/svg" xmlns:xlink="http://www.w3.org/1999/xlink">
	<desc>
			Created with Pixso.
	</desc>
	<defs>
		<clipPath id="clip18_1686">
			<rect id="Facebook Outline" rx="0.000000" width="23.250000" height="23.250000" transform="translate(0.375000 0.375000) rotate(0.000000)" fill="white" fill-opacity="0"/>
		</clipPath>
	</defs>
	<g clip-path="url(#clip18_1686)">
		<path id="path14" d="M12 2C6.47 2 2 6.47 2 12C2 16.99 5.65 21.12 10.43 21.87L10.43 14.89L7.89 14.89L7.89 12L10.43 12L10.43 9.79C10.43 7.29 11.93 5.9 14.21 5.9C15.3 5.9 16.45 6.1 16.45 6.1L16.45 8.56L15.19 8.56C13.95 8.56 13.56 9.33 13.56 10.12L13.56 12L16.33 12L15.89 14.89L13.56 14.89L13.56 21.87C18.34 21.12 22 16.99 22 12C22 6.47 17.52 2 12 2Z" stroke="#0D0300" stroke-opacity="1.000000" stroke-width="0.750000" stroke-linejoin="round"/>
	</g>
</svg>
