<svg width="24.000000" height="24.000000" viewBox="0 0 24 24" fill="none" xmlns="http://www.w3.org/2000/svg" xmlns:xlink="http://www.w3.org/1999/xlink">
	<desc>
			Created with Pixso.
	</desc>
	<defs>
		<clipPath id="clip18_1688">
			<rect id="Instagram Outline" rx="0.000000" width="23.250000" height="23.250000" transform="translate(0.375000 0.375000)" fill="white" fill-opacity="0"/>
		</clipPath>
	</defs>
	<g clip-path="url(#clip18_1688)">
		<path id="Vector" d="M8.24 20.95C7.22 20.9 6.56 20.74 6 20.52L5.99 20.52C5.42 20.31 4.91 19.97 4.48 19.54L4.47 19.53L4.47 19.52C4.03 19.1 3.7 18.58 3.48 18.01L3.48 18C3.26 17.44 3.1 16.79 3.06 15.76C3.01 14.67 3 14.33 3 11.5C3 8.67 3.01 8.33 3.06 7.24C3.1 6.22 3.26 5.56 3.48 5L3.48 4.99C3.7 4.42 4.03 3.91 4.47 3.48L4.47 3.47L4.48 3.47C4.91 3.03 5.42 2.7 5.99 2.48L6 2.48C6.56 2.26 7.22 2.1 8.24 2.06C9.33 2.01 9.67 2 12.5 2C15.33 2 15.67 2.01 16.76 2.06C17.79 2.1 18.44 2.26 19 2.48L19.01 2.48C19.58 2.7 20.1 3.03 20.52 3.47L20.53 3.47L20.54 3.48C20.97 3.91 21.3 4.42 21.52 4.99L21.52 5C21.74 5.56 21.9 6.22 21.95 7.24M3.48 18.01L3.47 17.94L3.07 15.85M3.07 15.85L3.06 15.76M8.24 2.06L8.52 2.06L16.49 2.06L16.76 2.06M21.95 15.76C21.9 16.79 21.74 17.44 21.52 18L21.52 18.01C21.31 18.58 20.97 19.1 20.54 19.52L20.53 19.53L20.52 19.53C20.1 19.97 19.58 20.31 19.01 20.52L19 20.52C18.44 20.74 17.79 20.9 16.76 20.95M3.47 17.94C3.48 17.96 3.48 17.98 3.49 17.99C3.7 18.57 4.04 19.09 4.48 19.52C4.91 19.96 5.43 20.3 6.01 20.51C6.47 20.69 7.13 20.88 8.24 20.93C9.36 20.99 9.71 21 12.5 21C15.29 21 15.64 20.99 16.76 20.93C17.88 20.88 18.53 20.69 18.99 20.51C19.57 20.3 20.09 19.96 20.52 19.52C20.96 19.09 21.3 18.57 21.51 17.99C21.69 17.53 21.88 16.88 21.93 15.76C21.98 14.64 22 14.29 22 11.5C22 8.71 21.98 8.36 21.93 7.24C21.88 6.12 21.69 5.47 21.51 5C21.28 4.4 20.98 3.94 20.52 3.48C20.06 3.02 19.61 2.73 19 2.49C18.54 2.31 17.88 2.12 16.76 2.07C16.67 2.07 16.58 2.06 16.49 2.06M8.52 2.06C8.43 2.06 8.34 2.07 8.24 2.07C7.12 2.12 6.47 2.31 6.01 2.49C5.43 2.7 4.91 3.04 4.48 3.49C4.02 3.94 3.73 4.4 3.49 5C3.31 5.47 3.12 6.12 3.07 7.24C3.06 7.34 3.06 7.43 3.06 7.51C3.02 8.44 3.01 8.95 3.01 11.5C3.01 14.05 3.02 14.56 3.06 15.49C3.06 15.58 3.06 15.67 3.07 15.76C3.07 15.79 3.07 15.82 3.07 15.85C3.13 16.88 3.3 17.5 3.47 17.94M16.49 2.06C15.56 2.02 15.05 2.01 12.5 2.01C9.95 2.01 9.44 2.02 8.52 2.06M3.06 15.76L3.06 15.49M3.06 15.49L3.06 7.51M3.06 7.51L3.06 7.24M12.5 15.92C13.67 15.92 14.8 15.45 15.63 14.63C16.45 13.8 16.92 12.67 16.92 11.5C16.92 10.33 16.45 9.21 15.63 8.38C14.8 7.55 13.67 7.08 12.5 7.08C11.92 7.08 11.35 7.2 10.81 7.42C10.27 7.64 9.79 7.97 9.38 8.38C8.97 8.79 8.64 9.27 8.42 9.81C8.2 10.35 8.08 10.92 8.08 11.5C8.08 12.08 8.2 12.66 8.42 13.19C8.64 13.73 8.97 14.22 9.38 14.63C9.79 15.04 10.27 15.36 10.81 15.58C11.35 15.81 11.92 15.92 12.5 15.92ZM12.5 7.07C13.68 7.07 14.8 7.54 15.64 8.37C16.47 9.2 16.93 10.33 16.93 11.5C16.93 12.68 16.47 13.8 15.64 14.64C14.8 15.47 13.68 15.93 12.5 15.93C11.33 15.93 10.2 15.47 9.37 14.64C8.54 13.8 8.07 12.68 8.07 11.5C8.07 10.33 8.54 9.2 9.37 8.37C10.2 7.54 11.33 7.07 12.5 7.07ZM19.06 6.93C18.82 7.17 18.5 7.31 18.16 7.31C17.82 7.31 17.5 7.17 17.26 6.93C17.03 6.7 16.89 6.37 16.89 6.04C16.89 5.7 17.03 5.38 17.26 5.14C17.5 4.9 17.82 4.77 18.16 4.77C18.5 4.77 18.82 4.9 19.06 5.14C19.3 5.38 19.43 5.7 19.43 6.04C19.43 6.37 19.3 6.7 19.06 6.93Z" stroke="#0D0300" stroke-opacity="1.000000" stroke-width="0.750000" stroke-linejoin="round"/>
	</g>
</svg>
