<svg width="16.000000" height="20.000000" viewBox="0 0 16 20" fill="none" xmlns="http://www.w3.org/2000/svg" xmlns:xlink="http://www.w3.org/1999/xlink">
	<desc>
			Created with Pixso.
	</desc>
	<defs/>
	<path id="Vector" d="M8 20L7.44 19.5C6.67 18.83 0 12.79 0 8.37C0 3.75 3.58 0 8 0C12.41 0 16 3.75 16 8.37C16 12.79 9.32 18.83 8.55 19.5L8 20ZM8 1.81C4.53 1.81 1.73 4.75 1.72 8.37C1.72 11.15 5.83 15.58 8 17.61C10.16 15.58 14.27 11.14 14.27 8.37C14.26 4.75 11.46 1.81 8 1.81Z" fill="#3A3A3A" fill-opacity="1.000000" fill-rule="nonzero"/>
	<ellipse id="Ellipse 1" cx="8.033203" cy="7.492188" rx="2.388294" ry="2.500132" fill="#3A3A3A" fill-opacity="1.000000"/>
</svg>
