<svg width="24.000000" height="24.000000" viewBox="0 0 24 24" fill="none" xmlns="http://www.w3.org/2000/svg" xmlns:xlink="http://www.w3.org/1999/xlink">
	<desc>
			Created with Pixso.
	</desc>
	<defs>
		<clipPath id="clip18_1690">
			<rect id="Tiktok Outline" rx="0.000000" width="23.250000" height="23.250000" transform="translate(0.375000 0.375000)" fill="white" fill-opacity="0"/>
		</clipPath>
	</defs>
	<g clip-path="url(#clip18_1690)">
		<path id="Vector" d="M9.17 9.35C5.75 9.42 3 12.23 3 15.66C3 17.33 3.64 18.84 4.69 19.98C5.85 21.22 7.5 22 9.32 22C12.8 22 15.64 19.16 15.64 15.66L15.64 8.68C16.99 9.64 18.64 10.21 20.42 10.21L20.42 6.78C20.07 6.78 19.74 6.74 19.42 6.67C18.39 6.45 17.49 5.9 16.82 5.13C16.08 4.29 15.64 3.19 15.64 2L14.72 2M6.98 17.35C6.64 16.87 6.43 16.29 6.43 15.66C6.43 14.07 7.73 12.77 9.32 12.77C9.62 12.77 9.9 12.82 10.17 12.91L10.17 9.4C9.89 9.36 9.61 9.34 9.32 9.34C9.27 9.34 8.86 9.36 8.81 9.36M14.72 2L12.21 2L12.2 15.77C12.14 17.31 10.87 18.55 9.32 18.55C8.35 18.55 7.5 18.08 6.98 17.35M16.82 5.13C16.8 5.12 16.78 5.11 16.76 5.09" stroke="#0D0300" stroke-opacity="1.000000" stroke-width="0.750000" stroke-linejoin="round"/>
	</g>
</svg>
