<svg width="68.000000" height="68.000000" viewBox="0 0 68 68" fill="none" xmlns="http://www.w3.org/2000/svg" xmlns:xlink="http://www.w3.org/1999/xlink">
	<desc>
			Created with Pixso.
	</desc>
	<defs/>
	<path id="Rectangle 30" d="M42.75 48.12L41.5 48.12L34 48.12L3.37 48.12L3.37 9.37L64.62 9.37L64.62 48.12L59.62 48.12L59.62 46.87L64 46.87L64 47.5L63.37 47.5L63.37 10L64 10L64 10.62L4 10.62L4 10L4.62 10L4.62 47.5L4 47.5L4 46.87L34 46.87L41.5 46.87L42.75 46.87L42.75 48.12Z" fill="#0D0300" fill-opacity="1.000000" fill-rule="evenodd"/>
	<line id="Line 4" x1="9.000000" y1="14.375000" x2="59.000000" y2="14.375000" stroke="#0D0300" stroke-opacity="1.000000" stroke-width="1.250000"/>
	<line id="Line 5" x1="9.000000" y1="19.375000" x2="59.000000" y2="19.375000" stroke="#0D0300" stroke-opacity="1.000000" stroke-width="1.250000"/>
	<line id="Line 6" x1="9.000000" y1="24.375000" x2="59.000000" y2="24.375000" stroke="#0D0300" stroke-opacity="1.000000" stroke-width="1.250000"/>
	<line id="Line 7" x1="9.000000" y1="29.375000" x2="59.000000" y2="29.375000" stroke="#0D0300" stroke-opacity="1.000000" stroke-width="1.250000"/>
	<line id="Line 8" x1="9.000000" y1="34.375000" x2="41.500000" y2="34.375000" stroke="#0D0300" stroke-opacity="1.000000" stroke-width="1.250000"/>
	<path id="Vector 1" d="M45 58.5L45.89 59.98L46.5 61L50.55 52.89L51 52L50.06 51.62L46 50L42.48 57.9L42 59L43.18 58.8L45 58.5ZM43.66 57.7L45.5 57.4L46.41 58.92L49.61 52.52L46.52 51.28L43.66 57.7Z" fill="#0D0300" fill-opacity="1.000000" fill-rule="evenodd"/>
	<path id="Vector 2" d="M56.5 58.5L55.6 59.98L55 61L50.94 52.89L50.5 52L51.43 51.62L55.5 50L59.01 57.9L59.5 59L58.31 58.8L56.5 58.5ZM57.83 57.7L55.99 57.4L55.08 58.92L51.88 52.52L54.97 51.28L57.83 57.7Z" fill="#0D0300" fill-opacity="1.000000" fill-rule="evenodd"/>
	<path id="Star 1" d="M51 35L48.46 36.37L45.59 36.58L44.2 39.11L41.9 40.84L42.1 43.72L41.1 46.42L42.82 48.73L43.44 51.54L46.13 52.56L48.18 54.59L51 53.99L53.81 54.59L55.86 52.56L58.55 51.54L59.17 48.73L60.89 46.42L59.89 43.72L60.09 40.84L57.79 39.11L56.4 36.58L53.53 36.37L51 35Z" fill="#FFFFFF" fill-opacity="1.000000" fill-rule="evenodd"/>
	<path id="Star 1" d="M48.46 36.37L45.59 36.58L44.2 39.11L41.9 40.84L42.1 43.72L41.1 46.42L42.82 48.73L43.44 51.54L46.13 52.56L48.18 54.59L51 53.99L53.81 54.59L55.86 52.56L58.55 51.54L59.17 48.73L60.89 46.42L59.89 43.72L60.09 40.84L57.79 39.11L56.4 36.58L53.53 36.37L51 35L48.46 36.37ZM51 36.42L48.82 37.6L46.36 37.78L45.17 39.94L43.19 41.43L43.36 43.9L42.5 46.22L43.98 48.2L44.51 50.61L46.83 51.48L48.58 53.23L51 52.71L53.41 53.23L55.16 51.48L57.48 50.61L58.01 48.2L59.49 46.22L58.63 43.9L58.8 41.43L56.82 39.94L55.63 37.78L53.17 37.6L51 36.42Z" fill="#0D0300" fill-opacity="1.000000" fill-rule="evenodd"/>
	<circle id="Ellipse 7" cx="51.000000" cy="45.000000" r="5.375000" stroke="#0D0300" stroke-opacity="1.000000" stroke-width="1.250000"/>
</svg>
