<svg width="68.000000" height="68.000000" viewBox="0 0 68 68" fill="none" xmlns="http://www.w3.org/2000/svg" xmlns:xlink="http://www.w3.org/1999/xlink">
	<desc>
			Created with Pixso.
	</desc>
	<defs>
		<clipPath id="clip90_7228">
			<rect id="dollar" rx="0.000000" width="66.639999" height="66.639999" transform="translate(0.680000 0.680000)" fill="white" fill-opacity="0"/>
		</clipPath>
	</defs>
	<g clip-path="url(#clip90_7228)">
		<circle id="Ellipse 5" cx="34.679688" cy="34.679688" r="29.920000" stroke="#0D0300" stroke-opacity="1.000000" stroke-width="1.360000"/>
		<path id="_105601152" d="M34.9 12.96L34.9 55.03L33.09 55.03L33.09 12.96L34.9 12.96Z" fill="#0D0300" fill-opacity="1.000000" fill-rule="nonzero"/>
		<path id="_103322680" d="M34 33.09C37.58 33.09 40.84 34.06 43.22 35.62C45.7 37.25 47.24 39.54 47.24 42.1C47.24 44.66 45.7 46.95 43.22 48.58C40.84 50.14 37.58 51.1 34 51.1C30.41 51.1 27.15 50.14 24.77 48.58C22.29 46.95 20.75 44.66 20.75 42.1C20.75 41.79 20.78 41.47 20.83 41.13C20.88 40.8 20.95 40.49 21.05 40.18L22.77 40.72C22.69 40.95 22.64 41.19 22.6 41.41C22.57 41.62 22.55 41.85 22.55 42.1C22.55 44.01 23.78 45.78 25.76 47.08C27.85 48.45 30.76 49.3 34 49.3C37.23 49.3 40.14 48.45 42.23 47.08C44.21 45.78 45.44 44.01 45.44 42.1C45.44 40.18 44.21 38.42 42.23 37.12C40.14 35.74 37.23 34.89 34 34.89L34 34.9C30.41 34.9 27.15 33.93 24.77 32.37C22.29 30.74 20.75 28.45 20.75 25.89C20.75 23.33 22.29 21.04 24.77 19.41C27.15 17.85 30.41 16.88 34 16.88C37.05 16.88 39.91 17.59 42.17 18.79C44.51 20.03 46.24 21.81 46.92 23.91L45.21 24.47C44.67 22.83 43.27 21.41 41.34 20.38C39.32 19.32 36.76 18.69 34 18.69C30.76 18.69 27.85 19.54 25.76 20.91C23.78 22.21 22.55 23.97 22.55 25.89C22.55 27.81 23.78 29.57 25.76 30.87C27.85 32.25 30.76 33.09 34 33.09L34 33.09L34 33.09Z" fill="#0D0300" fill-opacity="1.000000" fill-rule="nonzero"/>
	</g>
</svg>
