<svg width="24.000000" height="24.000000" viewBox="0 0 24 24" fill="none" xmlns="http://www.w3.org/2000/svg" xmlns:xlink="http://www.w3.org/1999/xlink">
	<desc>
			Created with Pixso.
	</desc>
	<defs>
		<clipPath id="clip207_3911">
			<rect id="fi-rs-marker" rx="0.000000" width="23.000000" height="23.000000" transform="translate(0.500000 0.500000)" fill="white" fill-opacity="0"/>
		</clipPath>
	</defs>
	<g clip-path="url(#clip207_3911)">
		<path id="Vector" d="M10.19 23.5L9.56 22.92C8.68 22.15 1 15.21 1 10.13C1 4.81 5.11 0.5 10.19 0.5C15.28 0.5 19.39 4.81 19.39 10.13C19.39 15.21 11.71 22.15 10.84 22.93L10.19 23.5ZM10.19 2.58C6.21 2.58 2.99 5.96 2.98 10.13C2.98 13.32 7.71 18.41 10.19 20.75C12.68 18.41 17.41 13.31 17.41 10.13C17.4 5.96 14.17 2.58 10.19 2.58Z" fill="#1DAEEF" fill-opacity="1.000000" fill-rule="nonzero"/>
		<ellipse id="Ellipse 1" cx="10.238281" cy="9.117188" rx="2.746538" ry="2.875152" fill="#1DAEEF" fill-opacity="1.000000"/>
		<rect id="Frame 48096363" rx="5.750000" width="11.500000" height="11.500000" transform="translate(11.000000 11.500000)" fill="#FFFFFF" fill-opacity="1.000000"/>
		<path id="Vector" d="M13.3 17.41L15.6 19.66L20.19 14.83" stroke="#1DAEEF" stroke-opacity="1.000000" stroke-width="2.000000" stroke-linejoin="round"/>
		<rect id="Frame 48096363" rx="5.750000" width="11.500000" height="11.500000" transform="translate(11.000000 11.500000)" stroke="#1DAEEF" stroke-opacity="1.000000" stroke-width="2.000000"/>
	</g>
</svg>
