<svg width="24.000000" height="24.000000" viewBox="0 0 24 24" fill="none" xmlns="http://www.w3.org/2000/svg" xmlns:xlink="http://www.w3.org/1999/xlink">
	<desc>
			Created with Pixso.
	</desc>
	<defs>
		<clipPath id="clip207_3988">
			<rect id="fi-rs-cross-circle" rx="0.000000" width="23.000000" height="23.000000" transform="translate(0.500000 0.500000)" fill="white" fill-opacity="0"/>
		</clipPath>
	</defs>
	<rect id="fi-rs-cross-circle" rx="0.000000" width="23.000000" height="23.000000" transform="translate(0.500000 0.500000)" fill="#FFFFFF" fill-opacity="0"/>
	<g clip-path="url(#clip207_3988)">
		<path id="Vector" d="M15.29 7.29L12 10.58L8.7 7.29L7.29 8.7L10.58 12L7.29 15.29L8.7 16.7L12 13.41L15.29 16.7L16.7 15.29L13.41 12L16.7 8.7L15.29 7.29Z" fill="#EF6363" fill-opacity="1.000000" fill-rule="nonzero"/>
		<path id="Vector" d="M12 0C9.62 0 7.3 0.7 5.33 2.02C3.35 3.34 1.82 5.21 0.91 7.4C0 9.59 -0.24 12.01 0.23 14.34C0.69 16.66 1.83 18.8 3.51 20.48C5.19 22.16 7.33 23.3 9.66 23.76C11.98 24.23 14.39 23.99 16.59 23.08C18.78 22.17 20.66 20.64 21.97 18.66C23.29 16.69 24 14.37 24 12C23.99 8.81 22.73 5.76 20.48 3.51C18.23 1.26 15.17 0 12 0L12 0ZM12 22C10.02 22 8.08 21.41 6.44 20.31C4.8 19.21 3.51 17.65 2.76 15.82C2 14 1.8 11.98 2.19 10.04C2.57 8.1 3.53 6.32 4.92 4.92C6.32 3.53 8.1 2.57 10.05 2.19C11.98 1.8 14 2 15.82 2.76C17.65 3.51 19.21 4.8 20.31 6.44C21.41 8.08 22 10.02 22 12C21.99 14.65 20.94 17.19 19.06 19.06C17.19 20.94 14.65 21.99 12 22Z" fill="#EF6363" fill-opacity="1.000000" fill-rule="nonzero"/>
	</g>
</svg>
