<svg width="24.000000" height="24.000000" viewBox="0 0 24 24" fill="none" xmlns="http://www.w3.org/2000/svg" xmlns:xlink="http://www.w3.org/1999/xlink">
	<desc>
			Created with Pixso.
	</desc>
	<defs>
		<clipPath id="clip202_6213">
			<rect id="fi-rs-heart" rx="0.000000" width="23.000000" height="23.000000" transform="translate(0.500000 0.500000)" fill="white" fill-opacity="0"/>
		</clipPath>
	</defs>
	<g clip-path="url(#clip202_6213)">
		<path id="Vector" d="M17.5 0.91C16.37 0.93 15.27 1.25 14.3 1.83C13.34 2.4 12.54 3.23 12 4.21C11.45 3.23 10.66 2.4 9.69 1.83C8.72 1.25 7.62 0.93 6.5 0.91C4.7 0.99 3.01 1.78 1.79 3.1C0.57 4.42 -0.07 6.17 0 7.96C0 14.74 10.95 22.56 11.42 22.9L12 23.3L12.57 22.9C13.04 22.57 24 14.74 24 7.96C24.07 6.17 23.42 4.42 22.2 3.1C20.98 1.78 19.29 0.99 17.5 0.91ZM12 20.84C8.74 18.41 2 12.44 2 7.96C1.93 6.7 2.36 5.46 3.21 4.51C4.05 3.57 5.23 2.99 6.5 2.91C7.76 2.99 8.94 3.57 9.79 4.51C10.63 5.46 11.07 6.7 11 7.96L13 7.96C12.93 6.7 13.36 5.46 14.21 4.51C15.05 3.57 16.23 2.99 17.5 2.91C18.76 2.99 19.94 3.57 20.79 4.51C21.63 5.46 22.07 6.7 22 7.96C22 12.44 15.25 18.41 12 20.84Z" fill="#3A3A3A" fill-opacity="1.000000" fill-rule="nonzero"/>
	</g>
</svg>
