<svg width="24.000000" height="24.000000" viewBox="0 0 24 24" fill="none" xmlns="http://www.w3.org/2000/svg" xmlns:xlink="http://www.w3.org/1999/xlink">
	<desc>
			Created with Pixso.
	</desc>
	<defs>
		<clipPath id="clip202_6232">
			<rect id="fi-rs-key" rx="0.000000" width="23.000000" height="23.000000" transform="translate(0.500000 0.500000)" fill="white" fill-opacity="0"/>
		</clipPath>
	</defs>
	<g clip-path="url(#clip202_6232)">
		<path id="Vector" d="M22 0L19.82 0C19.43 -0.01 19.04 0.07 18.67 0.22C18.31 0.37 17.98 0.59 17.7 0.87L9.34 9.23C7.74 8.82 6.05 8.95 4.53 9.59C3 10.23 1.73 11.36 0.91 12.79C0.09 14.23 -0.23 15.9 -0.01 17.53C0.21 19.17 0.96 20.69 2.13 21.86C3.3 23.03 4.82 23.78 6.46 24C8.1 24.22 9.76 23.9 11.19 23.08C12.63 22.26 13.76 20.99 14.4 19.47C15.05 17.94 15.17 16.25 14.76 14.65L16 13.41L16 11L19 11L19 8L21.41 8L23.12 6.29C23.39 6.01 23.62 5.68 23.77 5.32C23.92 4.95 24 4.56 24 4.17L24 2C24 1.46 23.78 0.96 23.41 0.58C23.03 0.21 22.53 0 22 0ZM22 4.17C22 4.3 21.97 4.43 21.92 4.55C21.87 4.67 21.8 4.78 21.7 4.87L20.58 6L17 6L17 9L14 9L14 12.58L12.45 14.13C12.8 14.87 12.99 15.67 13 16.5C13 17.58 12.67 18.65 12.07 19.55C11.46 20.46 10.6 21.16 9.6 21.58C8.59 21.99 7.49 22.1 6.42 21.89C5.35 21.68 4.37 21.15 3.6 20.38C2.83 19.61 2.31 18.64 2.1 17.57C1.89 16.5 2 15.4 2.41 14.39C2.83 13.39 3.53 12.53 4.44 11.92C5.34 11.32 6.41 11 7.5 11C8.32 10.94 9.14 11.13 9.86 11.54L19.12 2.29C19.3 2.1 19.56 2 19.82 2L22 2L22 4.17ZM5 18C5 18.19 5.05 18.39 5.16 18.55C5.27 18.72 5.43 18.84 5.61 18.92C5.8 19 6 19.01 6.19 18.98C6.39 18.94 6.56 18.84 6.7 18.7C6.84 18.56 6.94 18.38 6.98 18.19C7.01 18 7 17.8 6.92 17.61C6.84 17.43 6.71 17.27 6.55 17.16C6.39 17.05 6.19 17 6 17C5.73 17 5.48 17.1 5.29 17.29C5.1 17.48 5 17.73 5 18Z" fill="#3A3A3A" fill-opacity="1.000000" fill-rule="nonzero"/>
	</g>
</svg>
