<svg width="95.000000" height="5.730469" viewBox="0 0 95 5.73047" fill="none" xmlns="http://www.w3.org/2000/svg" xmlns:xlink="http://www.w3.org/1999/xlink">
	<desc>
			Created with Pixso.
	</desc>
	<defs/>
	<path id="Line 19" d="M90.03 0L90.03 2.86L90.03 5.73L95 2.86L90.03 0ZM2.6 2.36L0 2.36L0 3.36L2.6 3.36L2.6 2.36ZM13.05 2.36L7.83 2.36L7.83 3.36L13.05 3.36L13.05 2.36ZM23.5 2.36L18.27 2.36L18.27 3.36L23.5 3.36L23.5 2.36ZM33.94 2.36L28.72 2.36L28.72 3.36L33.94 3.36L33.94 2.36ZM44.39 2.36L39.16 2.36L39.16 3.36L44.39 3.36L44.39 2.36ZM54.83 2.36L49.6 2.36L49.6 3.36L54.83 3.36L54.83 2.36ZM65.27 2.36L60.05 2.36L60.05 3.36L65.27 3.36L65.27 2.36ZM75.72 2.36L70.5 2.36L70.5 3.36L75.72 3.36L75.72 2.36ZM86.16 2.36L80.94 2.36L80.94 3.36L86.16 3.36L86.16 2.36Z" fill="#0D0300" fill-opacity="1.000000" fill-rule="evenodd"/>
</svg>
