<svg width="96.500000" height="5.000000" viewBox="0 0 96.5 5" fill="none" xmlns="http://www.w3.org/2000/svg" xmlns:xlink="http://www.w3.org/1999/xlink">
	<desc>
			Created with Pixso.
	</desc>
	<defs/>
	<path id="Line 18" d="M4.95 3Q4.81 3.71 4.26 4.26Q3.53 5 2.5 5Q1.46 5 0.73 4.26Q0 3.53 0 2.5Q0 1.46 0.73 0.73Q1.46 0 2.5 0Q3.53 0 4.26 0.73Q4.81 1.28 4.95 2L5.1 2L5.1 3L4.95 3ZM15.55 2L10.33 2L10.33 3L15.55 3L15.55 2ZM26 2L20.77 2L20.77 3L26 3L26 2ZM36.44 2L31.22 2L31.22 3L36.44 3L36.44 2ZM46.89 2L41.66 2L41.66 3L46.89 3L46.89 2ZM57.33 2L52.1 2L52.1 3L57.33 3L57.33 2ZM67.77 2L62.55 2L62.55 3L67.77 3L67.77 2ZM78.22 2L73 2L73 3L78.22 3L78.22 2ZM88.66 2L83.44 2L83.44 3L88.66 3L88.66 2ZM96.5 2L93.89 2L93.89 3L96.5 3L96.5 2Z" fill="#0D0300" fill-opacity="1.000000" fill-rule="evenodd"/>
</svg>
