<svg width="24.000000" height="24.000000" viewBox="0 0 24 24" fill="none" xmlns="http://www.w3.org/2000/svg" xmlns:xlink="http://www.w3.org/1999/xlink">
	<desc>
			Created with Pixso.
	</desc>
	<defs>
		<clipPath id="clip207_3417">
			<rect id="fi-rs-marker" rx="0.000000" width="23.000000" height="23.000000" transform="translate(0.500000 0.500000)" fill="white" fill-opacity="0"/>
		</clipPath>
	</defs>
	<g clip-path="url(#clip207_3417)">
		<path id="Vector" d="M12 21.5L11.44 21C10.67 20.33 4 14.29 4 9.87C4 5.25 7.58 1.5 12 1.5C16.41 1.5 20 5.25 20 9.87C20 14.29 13.32 20.33 12.55 21L12 21.5ZM12 3.31C8.53 3.31 5.73 6.25 5.73 9.87C5.73 12.65 9.83 17.08 12 19.11C14.16 17.08 18.26 12.64 18.26 9.87C18.26 6.25 15.46 3.31 12 3.31Z" fill="#3A3A3A" fill-opacity="1.000000" fill-rule="nonzero"/>
		<ellipse id="Ellipse 1" cx="12.031250" cy="8.992188" rx="2.388294" ry="2.500132" fill="#3A3A3A" fill-opacity="1.000000"/>
	</g>
</svg>
