<svg width="24.292969" height="24.294922" viewBox="0 0 24.293 24.2949" fill="none" xmlns="http://www.w3.org/2000/svg" xmlns:xlink="http://www.w3.org/1999/xlink">
	<desc>
			Created with Pixso.
	</desc>
	<defs/>
	<circle id="Ellipse 8" cx="12.148438" cy="12.146484" r="11.467671" stroke="#B65916" stroke-opacity="1.000000" stroke-width="1.360000"/>
	<path id="Rectangle 68" d="M7.35 10.91L7.93 10.91L9.28 10.91L11.98 10.91L14.67 10.91Q15.33 10.91 15.93 11.16Q16.51 11.41 16.96 11.86Q17.4 12.3 17.64 12.88Q17.9 13.48 17.9 14.13Q17.9 14.79 17.64 15.39Q17.4 15.97 16.96 16.41Q16.51 16.86 15.93 17.1Q15.33 17.36 14.67 17.36L11.98 17.36L11.98 16.31L14.67 16.31Q15.12 16.31 15.52 16.14Q15.91 15.97 16.21 15.67Q16.51 15.37 16.68 14.98Q16.85 14.58 16.85 14.13Q16.85 13.69 16.68 13.29Q16.51 12.9 16.21 12.6Q15.91 12.3 15.52 12.13Q15.12 11.96 14.67 11.96L11.98 11.96L9.28 11.96L7.93 11.96L7.35 11.96L7.35 10.91Z" fill="#B65916" fill-opacity="1.000000" fill-rule="evenodd"/>
	<path id="Polygon 1" d="M10.88 14.93L6.51 11.44L10.88 7.94L11.53 8.76L7.68 11.85L7.35 11.44L7.68 11.03L11.53 14.11L10.88 14.93Z" fill="#B65916" fill-opacity="1.000000" fill-rule="evenodd"/>
</svg>
