<svg width="24.000000" height="24.000000" viewBox="0 0 24 24" fill="none" xmlns="http://www.w3.org/2000/svg" xmlns:xlink="http://www.w3.org/1999/xlink">
	<desc>
			Created with Pixso.
	</desc>
	<defs>
		<clipPath id="clip202_6484">
			<rect id="fi-rs-shopping-bag" rx="0.000000" width="23.000000" height="23.000000" transform="translate(0.500000 0.500000)" fill="white" fill-opacity="0"/>
		</clipPath>
	</defs>
	<g clip-path="url(#clip202_6484)">
		<path id="Vector" d="M18 6C18 4.4 17.36 2.88 16.24 1.75C15.11 0.63 13.58 0 12 0C10.41 0 8.88 0.63 7.75 1.75C6.63 2.88 6 4.4 6 6L0 6L0 21C0 21.79 0.31 22.55 0.87 23.12C1.44 23.68 2.2 24 3 24L21 24C21.79 24 22.55 23.68 23.12 23.12C23.68 22.55 24 21.79 24 21L24 6L18 6ZM12 2C13.06 2 14.07 2.42 14.82 3.17C15.57 3.92 16 4.93 16 6L8 6C8 4.93 8.42 3.92 9.17 3.17C9.92 2.42 10.93 2 12 2ZM22 21C22 21.26 21.89 21.51 21.7 21.7C21.51 21.89 21.26 22 21 22L3 22C2.73 22 2.48 21.89 2.29 21.7C2.1 21.51 2 21.26 2 21L2 8L6 8L6 10L8 10L8 8L16 8L16 10L18 10L18 8L22 8L22 21Z" fill="#3A3A3A" fill-opacity="1.000000" fill-rule="nonzero"/>
	</g>
</svg>
