<svg width="24.000000" height="24.000000" viewBox="0 0 24 24" fill="none" xmlns="http://www.w3.org/2000/svg" xmlns:xlink="http://www.w3.org/1999/xlink">
	<desc>
			Created with Pixso.
	</desc>
	<defs>
		<clipPath id="clip202_6228">
			<rect id="fi-rs-sign-out" rx="0.000000" width="23.000000" height="23.000000" transform="translate(0.500000 0.500000)" fill="white" fill-opacity="0"/>
		</clipPath>
	</defs>
	<rect id="fi-rs-sign-out" rx="0.000000" width="23.000000" height="23.000000" transform="translate(0.500000 0.500000)" fill="#FFFFFF" fill-opacity="0"/>
	<g clip-path="url(#clip202_6228)">
		<path id="Vector" d="M2 21L2 3C2 2.73 2.1 2.48 2.29 2.29C2.48 2.1 2.73 2 3 2L8 2L8 0L3 0C2.2 0 1.44 0.31 0.87 0.87C0.31 1.44 0 2.2 0 3L0 21C0 21.79 0.31 22.55 0.87 23.12C1.44 23.68 2.2 24 3 24L8 24L8 22L3 22C2.73 22 2.48 21.89 2.29 21.7C2.1 21.51 2 21.26 2 21Z" fill="#3A3A3A" fill-opacity="1.000000" fill-rule="nonzero"/>
		<path id="Vector" d="M23.12 9.87L18.53 5.29L17.12 6.7L21.38 10.97L5 11L5 13L21.44 12.97L17.12 17.29L18.53 18.7L23.12 14.12C23.68 13.55 24 12.79 24 12C24 11.2 23.68 10.44 23.12 9.87Z" fill="#3A3A3A" fill-opacity="1.000000" fill-rule="nonzero"/>
	</g>
</svg>
