<svg width="24.000000" height="24.000000" viewBox="0 0 24 24" fill="none" xmlns="http://www.w3.org/2000/svg" xmlns:xlink="http://www.w3.org/1999/xlink">
	<desc>
			Created with Pixso.
	</desc>
	<defs>
		<clipPath id="clip245_3288">
			<rect id="trash" rx="0.000000" width="23.000000" height="23.000000" transform="translate(0.500000 0.500000)" fill="white" fill-opacity="0"/>
		</clipPath>
	</defs>
	<g clip-path="url(#clip245_3288)">
		<path id="Vector" d="M8.85 3.25L5.21 3.25C4.54 3.25 4 3.8 4 4.5C4 4.75 4.07 5 4.2 5.19C4.42 5.53 4.79 5.75 5.21 5.75L19.78 5.75C20.2 5.75 20.57 5.53 20.79 5.19C20.92 5 21 4.75 21 4.5C21 3.8 20.45 3.25 19.78 3.25L16.14 3.25L15.87 2.69C15.66 2.26 15.24 2 14.78 2L10.21 2C9.75 2 9.33 2.26 9.12 2.69L8.85 3.25ZM17.22 1.44L19.78 1.44Q20.1 1.44 20.41 1.51Q20.69 1.57 20.97 1.69Q21.22 1.8 21.45 1.95Q21.71 2.13 21.93 2.36Q22.13 2.56 22.28 2.79Q22.45 3.04 22.57 3.33Q22.67 3.58 22.73 3.85Q22.8 4.16 22.8 4.5Q22.8 4.83 22.73 5.14Q22.67 5.41 22.57 5.66Q22.45 5.95 22.28 6.2Q22.13 6.43 21.93 6.63Q21.77 6.8 21.59 6.94L20.77 20.35Q20.75 20.73 20.65 21.09Q20.57 21.4 20.43 21.69Q20.28 22.01 20.08 22.3Q19.89 22.56 19.66 22.78Q19.38 23.04 19.07 23.24Q18.82 23.4 18.53 23.52Q18.21 23.66 17.87 23.73Q17.52 23.8 17.16 23.8L7.83 23.8Q7.47 23.8 7.12 23.73Q6.78 23.66 6.46 23.52Q6.17 23.4 5.92 23.24Q5.61 23.04 5.33 22.78Q5.1 22.56 4.91 22.3Q4.71 22.01 4.56 21.69Q4.42 21.41 4.34 21.11Q4.24 20.74 4.22 20.35L3.41 7.1L3.4 6.94Q3.22 6.8 3.06 6.63Q2.86 6.43 2.71 6.2Q2.54 5.95 2.42 5.66Q2.32 5.41 2.26 5.14Q2.19 4.83 2.19 4.5Q2.19 4.16 2.26 3.85Q2.32 3.58 2.42 3.33Q2.54 3.04 2.71 2.79Q2.86 2.56 3.06 2.36Q3.28 2.13 3.54 1.95Q3.77 1.8 4.02 1.69Q4.3 1.57 4.58 1.51Q4.89 1.44 5.21 1.44L7.78 1.44Q7.87 1.31 7.99 1.18Q8.26 0.88 8.61 0.66Q8.98 0.42 9.39 0.31Q9.78 0.19 10.21 0.19L14.78 0.19Q15.21 0.19 15.6 0.31Q16.01 0.42 16.38 0.66Q16.76 0.9 17.05 1.23Q17.14 1.33 17.22 1.44ZM5.32 8.8L6.01 20.24C6.07 21.23 6.87 22 7.83 22L17.16 22C18.12 22 18.92 21.23 18.98 20.24L19.67 8.8L19.75 7.55L19.78 7L5.21 7L5.24 7.55L5.32 8.8Z" fill="#737373" fill-opacity="1.000000" fill-rule="evenodd"/>
	</g>
</svg>
