<svg width="24.000000" height="24.000000" viewBox="0 0 24 24" fill="none" xmlns="http://www.w3.org/2000/svg" xmlns:xlink="http://www.w3.org/1999/xlink">
	<desc>
			Created with Pixso.
	</desc>
	<defs>
		<clipPath id="clip202_6195">
			<rect id="fi-rs-user" rx="0.000000" width="23.000000" height="23.000000" transform="translate(0.500000 0.500000)" fill="white" fill-opacity="0"/>
		</clipPath>
	</defs>
	<g clip-path="url(#clip202_6195)">
		<path id="Vector" d="M21 24L19 24L19 18.95C19 18.17 18.68 17.42 18.13 16.86C17.57 16.31 16.82 16 16.04 16L7.95 16C7.17 16 6.42 16.31 5.86 16.86C5.31 17.42 5 18.17 5 18.95L5 24L3 24L3 18.95C3 17.64 3.52 16.38 4.45 15.45C5.38 14.52 6.64 14 7.95 14L16.04 14C17.35 14 18.61 14.52 19.54 15.45C20.47 16.38 21 17.64 21 18.95L21 24Z" fill="#3A3A3A" fill-opacity="1.000000" fill-rule="nonzero"/>
		<path id="Vector" d="M12 12C10.81 12 9.65 11.64 8.66 10.98C7.67 10.33 6.91 9.39 6.45 8.29C6 7.19 5.88 5.99 6.11 4.83C6.34 3.66 6.91 2.59 7.75 1.75C8.59 0.91 9.66 0.34 10.82 0.11C11.99 -0.12 13.19 0 14.29 0.45C15.39 0.91 16.32 1.67 16.98 2.66C17.64 3.65 18 4.81 18 6C18 7.58 17.36 9.11 16.24 10.24C15.11 11.36 13.58 11.99 12 12ZM12 2C11.2 2 10.43 2.23 9.77 2.67C9.12 3.11 8.6 3.73 8.3 4.46C8 5.19 7.92 6 8.07 6.78C8.23 7.55 8.61 8.26 9.17 8.82C9.73 9.38 10.44 9.76 11.21 9.92C11.99 10.07 12.8 9.99 13.53 9.69C14.26 9.39 14.88 8.88 15.32 8.22C15.76 7.56 16 6.79 16 6C16 4.93 15.57 3.92 14.82 3.17C14.07 2.42 13.06 2 12 2Z" fill="#3A3A3A" fill-opacity="1.000000" fill-rule="nonzero"/>
	</g>
</svg>
