<svg width="24.000000" height="24.000000" viewBox="0 0 24 24" fill="none" xmlns="http://www.w3.org/2000/svg" xmlns:xlink="http://www.w3.org/1999/xlink">
	<desc>
			Created with Pixso.
	</desc>
	<defs>
		<clipPath id="clip309_5413">
			<rect id="Facebook Outline" rx="0.000000" width="23.250000" height="23.250000" transform="translate(0.375000 0.375000) rotate(0.000000)" fill="white" fill-opacity="0"/>
		</clipPath>
	</defs>
	<g clip-path="url(#clip309_5413)">
		<path id="path14" d="M11.5 2C5.7 2 1 6.73 1 12.56C1 17.83 4.83 22.2 9.85 23L9.85 15.61L7.19 15.61L7.19 12.56L9.85 12.56L9.85 10.23C9.85 7.58 11.42 6.12 13.82 6.12C14.97 6.12 16.17 6.33 16.17 6.33L16.17 8.93L14.85 8.93C13.54 8.93 13.14 9.74 13.14 10.58L13.14 12.56L16.05 12.56L15.58 15.61L13.14 15.61L13.14 23C18.16 22.2 22 17.83 22 12.56C22 6.73 17.29 2 11.5 2Z" stroke="#FFFFFF" stroke-opacity="0.800000" stroke-width="1.575000" stroke-linejoin="round"/>
	</g>
</svg>
