<svg width="24.000000" height="24.000000" viewBox="0 0 24 24" fill="none" xmlns="http://www.w3.org/2000/svg" xmlns:xlink="http://www.w3.org/1999/xlink">
	<desc>
			Created with Pixso.
	</desc>
	<defs>
		<clipPath id="clip202_4429">
			<rect id="devicon:google" rx="0.000000" width="23.000000" height="23.000000" transform="translate(0.500000 0.500000)" fill="white" fill-opacity="0"/>
		</clipPath>
	</defs>
	<rect id="devicon:google" rx="0.000000" width="23.000000" height="23.000000" transform="translate(0.500000 0.500000)" fill="#FFFFFF" fill-opacity="0"/>
	<g clip-path="url(#clip202_4429)">
		<path id="Vector" d="M8.35 0.78C5.96 1.62 3.89 3.2 2.45 5.29C1.02 7.38 0.3 9.88 0.39 12.42C0.48 14.96 1.38 17.4 2.96 19.38C4.54 21.37 6.71 22.8 9.17 23.45C11.16 23.97 13.24 23.99 15.23 23.52C17.04 23.11 18.72 22.24 20.09 21C21.52 19.66 22.56 17.96 23.09 16.07C23.67 14.02 23.77 11.87 23.39 9.78L12.23 9.78L12.23 14.41L18.69 14.41C18.57 15.14 18.29 15.85 17.88 16.48C17.47 17.11 16.94 17.65 16.32 18.07C15.53 18.59 14.64 18.94 13.71 19.1C12.77 19.27 11.82 19.27 10.88 19.1C9.93 18.9 9.03 18.51 8.25 17.95C6.98 17.05 6.03 15.78 5.53 14.31C5.01 12.81 5.01 11.18 5.53 9.69C5.88 8.64 6.47 7.68 7.25 6.89C8.14 5.97 9.26 5.31 10.5 4.99C11.74 4.66 13.04 4.69 14.27 5.06C15.23 5.35 16.1 5.87 16.83 6.56C17.55 5.83 18.28 5.11 19.01 4.38C19.38 3.99 19.79 3.61 20.16 3.21C19.06 2.18 17.76 1.38 16.34 0.86C13.77 -0.08 10.95 -0.1 8.35 0.78Z" fill="#FFFFFF" fill-opacity="1.000000" fill-rule="nonzero"/>
		<path id="Vector" d="M8.35 0.78C10.95 -0.11 13.76 -0.08 16.34 0.85C17.76 1.38 19.05 2.19 20.16 3.22C19.78 3.62 19.39 4 19.01 4.39C18.28 5.11 17.55 5.83 16.82 6.56C16.1 5.86 15.23 5.35 14.27 5.06C13.04 4.69 11.74 4.66 10.5 4.98C9.26 5.31 8.14 5.96 7.25 6.88C6.47 7.67 5.88 8.63 5.52 9.68L1.64 6.67C3.03 3.91 5.44 1.8 8.35 0.78Z" fill="#E33629" fill-opacity="1.000000" fill-rule="nonzero"/>
		<path id="Vector" d="M0.61 9.65C0.82 8.62 1.16 7.61 1.64 6.67L5.53 9.69C5.01 11.18 5.01 12.81 5.53 14.31C4.23 15.31 2.93 16.31 1.64 17.32C0.45 14.95 0.08 12.25 0.61 9.65Z" fill="#F8BD00" fill-opacity="1.000000" fill-rule="nonzero"/>
		<path id="Vector" d="M12.23 9.77L23.39 9.77C23.78 11.87 23.67 14.02 23.09 16.07C22.56 17.95 21.52 19.66 20.09 20.99C18.84 20.01 17.58 19.04 16.32 18.06C16.94 17.64 17.48 17.1 17.89 16.47C18.29 15.84 18.57 15.14 18.7 14.4L12.23 14.4C12.23 12.86 12.23 11.32 12.23 9.77Z" fill="#587DBD" fill-opacity="1.000000" fill-rule="nonzero"/>
		<path id="Vector" d="M1.64 17.32C2.93 16.32 4.23 15.32 5.52 14.31C6.02 15.78 6.98 17.05 8.25 17.95C9.04 18.51 9.94 18.89 10.89 19.09C11.82 19.26 12.78 19.26 13.72 19.09C14.65 18.93 15.54 18.58 16.33 18.06C17.58 19.03 18.84 20 20.1 20.99C18.73 22.23 17.05 23.1 15.24 23.51C13.24 23.98 11.16 23.96 9.17 23.44C7.6 23.02 6.13 22.28 4.86 21.27C3.51 20.2 2.41 18.85 1.64 17.32Z" fill="#62B959" fill-opacity="1.000000" fill-rule="nonzero"/>
	</g>
</svg>
