<svg width="440.992188" height="382.025391" viewBox="0 0 440.992 382.025" fill="none" xmlns="http://www.w3.org/2000/svg" xmlns:xlink="http://www.w3.org/1999/xlink">
	<desc>
			Created with Pixso.
	</desc>
	<defs>
		<clipPath id="clip433_6194">
			<rect id="Frame 48096509" rx="0.000000" width="117.000000" height="55.000000" transform="translate(40.500000 4.525391)" fill="white" fill-opacity="0"/>
		</clipPath>
	</defs>
	<rect id="Rectangle 39051" x="1.500000" y="33.525391" width="375.000000" height="347.000000" stroke="#0D0300" stroke-opacity="1.000000" stroke-width="3.000000"/>
	<rect id="Frame 48096509" rx="0.000000" width="117.000000" height="55.000000" transform="translate(40.500000 4.525391)" fill="#FFFFFF" fill-opacity="1.000000"/>
	<g clip-path="url(#clip433_6194)">
		<path id="Succes" d="M65.05 37.04L66.67 35.93Q67.25 36.94 67.89 37.71Q68.53 38.48 69.32 38.91Q69.36 38.93 69.4 38.95Q70.16 39.34 71.12 39.34Q72.26 39.34 73.02 38.8Q73.15 38.71 73.27 38.59Q73.64 38.26 73.84 37.85Q74.09 37.34 74.09 36.7Q74.09 35.57 73.56 34.9Q73.04 34.23 72.18 33.81Q71.33 33.39 70.37 33.05Q69.74 32.83 68.98 32.49Q68.21 32.14 67.51 31.6Q67.32 31.45 67.15 31.28Q66.7 30.84 66.38 30.27Q65.93 29.48 65.93 28.32Q65.93 27.42 66.25 26.66Q66.38 26.36 66.55 26.09Q66.73 25.8 66.96 25.55Q67.5 24.94 68.28 24.54Q69.39 23.98 70.8 23.98Q72.17 23.98 73.19 24.5Q74.12 24.97 74.8 25.68Q74.87 25.74 74.93 25.82Q75.65 26.62 76.06 27.51L74.31 28.52Q73.99 27.89 73.51 27.29Q73.36 27.1 73.18 26.93Q72.82 26.57 72.35 26.31Q71.67 25.93 70.68 25.93Q69.32 25.93 68.69 26.59Q68.26 27.04 68.13 27.56Q68.07 27.8 68.07 28.06Q68.07 28.43 68.17 28.77Q68.26 29.07 68.43 29.35Q68.79 29.93 69.64 30.45Q70.49 30.97 71.95 31.47Q72.63 31.71 73.37 32.1Q73.4 32.11 73.44 32.13Q74.14 32.5 74.75 33.07Q74.8 33.12 74.85 33.16Q75.42 33.72 75.79 34.48Q76.2 35.31 76.2 36.46Q76.2 37.56 75.78 38.45Q75.54 38.97 75.19 39.39Q74.94 39.7 74.63 39.97Q74.42 40.14 74.2 40.3Q73.64 40.68 72.97 40.93Q72.74 41.01 72.49 41.08Q71.79 41.26 71.05 41.26Q70.04 41.26 69.15 40.95Q68.82 40.83 68.51 40.67Q67.99 40.41 67.52 40.06Q66.95 39.65 66.47 39.11Q65.6 38.14 65.05 37.04ZM93.01 33.52Q92.55 34.39 92.55 35.5Q92.55 36.63 93.02 37.5Q93.03 37.52 93.04 37.55Q93.32 38.05 93.72 38.44Q94.02 38.72 94.38 38.95Q94.56 39.05 94.75 39.14Q95.46 39.46 96.32 39.46Q97.2 39.46 97.98 39.19Q98.77 38.91 99.34 38.44Q99.91 37.97 100.15 37.45L100.15 39.84Q99.58 40.52 98.51 40.89Q97.94 41.09 97.37 41.18Q96.85 41.26 96.32 41.26Q95.06 41.26 94 40.81Q93.7 40.68 93.41 40.52Q92.81 40.17 92.33 39.71Q91.77 39.17 91.36 38.47Q91.24 38.26 91.14 38.04Q90.6 36.89 90.6 35.5Q90.6 33.98 91.22 32.78Q91.29 32.65 91.36 32.52Q91.75 31.86 92.28 31.34Q92.78 30.85 93.41 30.49Q93.7 30.32 94 30.19Q95.06 29.74 96.32 29.74Q96.83 29.74 97.33 29.82Q97.93 29.91 98.51 30.12Q99.58 30.49 100.15 31.16L100.15 33.56Q99.91 33 99.34 32.55Q98.77 32.09 97.98 31.82Q97.2 31.54 96.32 31.54Q95.42 31.54 94.69 31.88Q94.53 31.95 94.38 32.04Q94.08 32.22 93.82 32.46Q93.36 32.87 93.04 33.45Q93.02 33.48 93.01 33.52ZM104.48 33.52Q104.02 34.39 104.02 35.5Q104.02 36.63 104.49 37.5Q104.5 37.52 104.51 37.55Q104.79 38.05 105.19 38.44Q105.49 38.72 105.86 38.95Q106.03 39.05 106.22 39.14Q106.93 39.46 107.79 39.46Q108.67 39.46 109.45 39.19Q110.24 38.91 110.81 38.44Q111.39 37.97 111.63 37.45L111.63 39.84Q111.05 40.52 109.98 40.89Q109.42 41.09 108.84 41.18Q108.32 41.26 107.79 41.26Q106.53 41.26 105.47 40.81Q105.17 40.68 104.88 40.52Q104.29 40.17 103.8 39.71Q103.24 39.17 102.83 38.47Q102.71 38.26 102.61 38.04Q102.08 36.89 102.08 35.5Q102.08 33.98 102.69 32.78Q102.76 32.65 102.83 32.52Q103.22 31.86 103.75 31.34Q104.25 30.85 104.88 30.49Q105.17 30.32 105.47 30.19Q106.53 29.74 107.79 29.74Q108.3 29.74 108.81 29.82Q109.4 29.91 109.98 30.12Q111.05 30.49 111.63 31.16L111.63 33.56Q111.39 33 110.81 32.55Q110.24 32.09 109.45 31.82Q108.67 31.54 107.79 31.54Q106.9 31.54 106.16 31.88Q106.01 31.95 105.86 32.04Q105.55 32.22 105.29 32.46Q104.83 32.87 104.51 33.45Q104.5 33.48 104.48 33.52ZM121.98 40.55Q120.67 41.26 118.9 41.26Q117.66 41.26 116.64 40.78Q116.4 40.67 116.17 40.53Q115.76 40.27 115.41 39.95Q114.76 39.34 114.33 38.5Q113.67 37.21 113.67 35.5Q113.67 33.77 114.35 32.48Q114.75 31.73 115.33 31.17Q115.75 30.77 116.27 30.46Q116.34 30.43 116.4 30.39Q117.59 29.74 119.14 29.74Q120.77 29.74 121.93 30.43Q122.34 30.66 122.68 30.98Q123.32 31.55 123.72 32.38Q124.35 33.66 124.35 35.41Q124.35 35.57 124.34 35.75Q124.32 35.93 124.32 35.98L115.63 35.98Q115.71 36.9 116.02 37.59Q116.31 38.24 116.79 38.66Q116.99 38.84 117.22 38.98Q118.01 39.46 119.14 39.46Q120.23 39.46 121.07 39Q121.1 38.99 121.13 38.97Q122 38.48 122.6 37.47L124.15 38.45Q123.44 39.61 122.4 40.3Q122.2 40.43 121.98 40.55ZM115.71 34.35Q115.82 33.73 116.06 33.23Q116.36 32.61 116.84 32.19Q117.03 32.02 117.26 31.89Q118.04 31.42 119.14 31.42Q120.07 31.42 120.77 31.83L120.77 31.83Q121.08 32.01 121.33 32.25Q121.64 32.55 121.86 32.96Q122.2 33.56 122.25 34.35L115.71 34.35ZM125.93 38.57L127.44 37.63Q127.49 37.71 127.54 37.78Q127.84 38.2 128.21 38.57Q128.41 38.77 128.64 38.93Q128.9 39.12 129.21 39.26Q129.21 39.26 129.22 39.26Q129.78 39.51 130.44 39.51Q131.26 39.51 131.73 39.14Q131.91 38.99 132.02 38.8Q132.2 38.51 132.2 38.11Q132.2 37.77 132.06 37.49Q131.97 37.3 131.82 37.15Q131.45 36.75 130.87 36.47Q130.3 36.2 129.65 35.96Q128.93 35.67 128.2 35.27Q127.66 34.98 127.25 34.56Q127.11 34.41 126.97 34.24Q126.92 34.17 126.88 34.1Q126.48 33.5 126.48 32.64Q126.48 31.8 126.86 31.2Q126.93 31.1 127 31.01Q127.15 30.83 127.32 30.67Q127.75 30.27 128.34 30.05Q128.78 29.89 129.24 29.81Q129.64 29.74 130.06 29.74Q130.95 29.74 131.73 30.03Q132.5 30.32 133.1 30.8Q133.7 31.27 134.03 31.88Q134.03 31.89 134.04 31.9L132.5 32.88Q132.37 32.69 132.21 32.52Q131.84 32.14 131.36 31.86Q131.21 31.77 131.05 31.69Q130.49 31.45 129.82 31.45Q129.22 31.45 128.78 31.71Q128.61 31.82 128.51 31.97Q128.36 32.2 128.36 32.52Q128.36 32.68 128.4 32.82Q128.48 33.08 128.69 33.29Q129.03 33.63 129.55 33.9Q130.09 34.16 130.66 34.4Q131.62 34.78 132.41 35.23Q133.2 35.67 133.67 36.3Q134.14 36.92 134.14 37.9Q134.14 38.64 133.86 39.25Q133.6 39.83 133.09 40.3Q132.91 40.47 132.7 40.61Q131.75 41.26 130.35 41.26Q129.24 41.26 128.35 40.87Q127.47 40.47 126.85 39.85Q126.24 39.22 125.93 38.57ZM81 29.98L81 36.7Q81 38.02 81.6 38.74Q81.74 38.91 81.91 39.04Q82.47 39.46 83.35 39.46Q84.2 39.46 84.83 39.12Q85.2 38.91 85.47 38.61Q85.67 38.4 85.81 38.14Q85.83 38.12 85.84 38.1Q86.17 37.49 86.17 36.7L86.17 29.98L88.08 29.98L88.08 41.02L86.17 41.02L86.17 39.29Q85.61 40.28 84.79 40.77Q84.79 40.77 84.78 40.78Q83.97 41.26 82.87 41.26Q81.75 41.26 80.93 40.77Q80.48 40.5 80.11 40.09Q80.03 40 79.96 39.9Q79.08 38.76 79.08 36.94L79.08 29.98L81 29.98Z" fill="#0D0300" fill-opacity="1.000000" fill-rule="evenodd"/>
	</g>
	<path id="Vector" d="M70.78 182.75L53 203.25L197.26 328.35L412.96 44.44L391.35 28.02L193.17 288.87L70.78 182.75Z" fill="#0D0300" fill-opacity="1.000000" fill-rule="nonzero"/>
	<path id="Vector" d="M68.77 154.53L24.78 205.26L39.89 218.36L200.28 357.43L440.99 40.62L387.52 0L190.15 259.78L68.77 154.53ZM205.29 272.91L193.17 288.87L178.03 275.74L85.89 195.85L70.78 182.75L66.1 188.14L57.67 197.86L53 203.25L68.1 216.35L182.12 315.22L197.26 328.35L209.39 312.39L412.96 44.44L407.27 40.12L391.35 28.02L391.14 28.3L379.25 43.95L205.29 272.91Z" fill="#FFFFFF" fill-opacity="1.000000" fill-rule="evenodd"/>
</svg>
