<svg width="40.000000" height="40.000000" viewBox="0 0 40 40" fill="none" xmlns="http://www.w3.org/2000/svg" xmlns:xlink="http://www.w3.org/1999/xlink">
	<desc>
			Created with Pixso.
	</desc>
	<defs>
		<clipPath id="clip139_2271">
			<rect id="Instagram Outline" rx="0.000000" width="38.750000" height="38.750000" transform="translate(0.625000 0.625000)" fill="white" fill-opacity="0"/>
		</clipPath>
	</defs>
	<g clip-path="url(#clip139_2271)">
		<path id="Vector" d="M13.74 34.91C12.03 34.83 10.93 34.57 10 34.21L9.99 34.2C9.04 33.85 8.18 33.29 7.47 32.56L7.46 32.55L7.45 32.54C6.73 31.83 6.17 30.97 5.81 30.02L5.8 30.01C5.44 29.08 5.18 27.98 5.1 26.28C5.01 24.46 5 23.89 5 19.17C5 14.45 5.02 13.89 5.1 12.07C5.18 10.37 5.44 9.27 5.8 8.33L5.81 8.32C6.17 7.37 6.73 6.51 7.45 5.8L7.46 5.79L7.47 5.78C8.18 5.06 9.04 4.5 9.99 4.14L10 4.14C10.93 3.78 12.03 3.51 13.74 3.43C15.56 3.35 16.12 3.33 20.84 3.33C25.56 3.33 26.12 3.35 27.94 3.43C29.64 3.51 30.74 3.78 31.68 4.14L31.69 4.14C32.64 4.5 33.5 5.06 34.21 5.78L34.22 5.79L34.23 5.8C34.95 6.51 35.51 7.37 35.87 8.32L35.87 8.34C36.24 9.27 36.5 10.36 36.58 12.07M5.81 30.02L5.79 29.91L5.13 26.42M5.13 26.42L5.1 26.28M13.74 3.43L14.2 3.43L27.48 3.43L27.94 3.43M36.58 26.28C36.5 27.98 36.24 29.08 35.87 30.01L35.87 30.02C35.51 30.97 34.95 31.83 34.23 32.54L34.22 32.55L34.21 32.56C33.5 33.29 32.64 33.84 31.69 34.2L31.67 34.21C30.74 34.57 29.65 34.83 27.94 34.91M5.79 29.91C5.8 29.94 5.81 29.96 5.82 29.99C6.17 30.95 6.74 31.82 7.47 32.54C8.19 33.27 9.06 33.84 10.02 34.19C10.79 34.5 11.88 34.81 13.74 34.89C15.61 34.98 16.19 35 20.84 35C25.49 35 26.07 34.98 27.94 34.89C29.8 34.81 30.88 34.49 31.65 34.19C32.62 33.84 33.49 33.27 34.21 32.54C34.94 31.82 35.5 30.95 35.86 29.99C36.16 29.22 36.47 28.13 36.56 26.28C36.64 24.41 36.66 23.83 36.66 19.17C36.66 14.52 36.64 13.94 36.56 12.07C36.47 10.2 36.16 9.12 35.86 8.34C35.46 7.33 34.97 6.57 34.2 5.81C33.44 5.05 32.68 4.55 31.67 4.16C30.89 3.85 29.81 3.54 27.94 3.45C27.78 3.44 27.63 3.44 27.48 3.43M14.2 3.43C14.05 3.44 13.9 3.44 13.74 3.45C11.88 3.54 10.79 3.85 10.02 4.15C9.06 4.51 8.18 5.08 7.46 5.82C6.71 6.58 6.21 7.34 5.82 8.34C5.52 9.12 5.2 10.21 5.12 12.07C5.11 12.23 5.1 12.38 5.1 12.53C5.03 14.07 5.02 14.92 5.02 19.17C5.02 23.42 5.03 24.27 5.1 25.82C5.1 25.96 5.11 26.11 5.12 26.28C5.12 26.33 5.12 26.37 5.13 26.42C5.22 28.13 5.51 29.17 5.79 29.91M27.48 3.43C25.94 3.36 25.09 3.35 20.84 3.35C16.59 3.35 15.74 3.36 14.2 3.43M5.1 26.28L5.1 25.82M5.1 25.82L5.1 12.53M5.1 12.53L5.1 12.07M20.84 26.54C22.79 26.54 24.66 25.76 26.05 24.38C27.43 23 28.2 21.13 28.2 19.17C28.2 17.22 27.43 15.35 26.05 13.97C24.66 12.58 22.79 11.81 20.84 11.81C19.87 11.81 18.91 12 18.02 12.37C17.13 12.74 16.32 13.28 15.63 13.97C14.95 14.65 14.41 15.46 14.04 16.35C13.67 17.25 13.48 18.21 13.48 19.17C13.48 20.14 13.67 21.1 14.04 21.99C14.41 22.88 14.95 23.7 15.63 24.38C16.32 25.06 17.13 25.61 18.02 25.98C18.91 26.35 19.87 26.54 20.84 26.54ZM20.84 11.79C22.8 11.79 24.68 12.56 26.06 13.95C27.45 15.33 28.23 17.21 28.23 19.17C28.23 21.13 27.45 23.01 26.06 24.4C24.68 25.78 22.8 26.56 20.84 26.56C18.88 26.56 17 25.78 15.62 24.4C14.23 23.01 13.45 21.13 13.45 19.17C13.45 17.21 14.23 15.33 15.62 13.95C17 12.56 18.88 11.79 20.84 11.79ZM31.77 11.56C31.37 11.96 30.83 12.18 30.27 12.18C29.71 12.18 29.17 11.96 28.78 11.56C28.38 11.16 28.16 10.63 28.16 10.07C28.16 9.5 28.38 8.97 28.78 8.57C29.17 8.17 29.71 7.95 30.27 7.95C30.83 7.95 31.37 8.17 31.77 8.57C32.16 8.97 32.38 9.5 32.38 10.07C32.38 10.63 32.16 11.16 31.77 11.56Z" stroke="#FFFFFF" stroke-opacity="0.800000" stroke-width="1.666667" stroke-linejoin="round"/>
	</g>
</svg>
