<svg width="24.000000" height="24.000000" viewBox="0 0 24 24" fill="none" xmlns="http://www.w3.org/2000/svg" xmlns:xlink="http://www.w3.org/1999/xlink">
	<desc>
			Created with Pixso.
	</desc>
	<defs>
		<clipPath id="clip309_5415">
			<rect id="Instagram Outline" rx="0.000000" width="23.250000" height="23.250000" transform="translate(0.375000 0.375000) rotate(0.000000)" fill="white" fill-opacity="0"/>
		</clipPath>
	</defs>
	<g clip-path="url(#clip309_5415)">
		<path id="Vector" d="M7.52 22.94C6.44 22.89 5.75 22.73 5.16 22.5L5.15 22.5C4.55 22.27 4.01 21.91 3.56 21.46L3.55 21.45L3.55 21.45C3.09 21 2.73 20.45 2.51 19.85L2.51 19.84C2.28 19.26 2.11 18.57 2.06 17.49C2.01 16.34 2 15.98 2 13C2 10.02 2.01 9.66 2.06 8.52C2.11 7.44 2.28 6.75 2.51 6.16L2.51 6.15C2.73 5.55 3.09 5.01 3.54 4.56L3.55 4.55L3.56 4.55C4.01 4.09 4.55 3.74 5.15 3.51L5.16 3.5C5.75 3.28 6.44 3.11 7.52 3.06C8.67 3.01 9.02 3 12 3C14.98 3 15.34 3.01 16.49 3.06C17.56 3.11 18.26 3.28 18.85 3.5L18.85 3.51C19.45 3.73 20 4.09 20.45 4.54L20.45 4.55L20.46 4.56C20.91 5.01 21.27 5.55 21.49 6.15L21.5 6.16C21.73 6.75 21.89 7.44 21.94 8.52M2.51 19.85L2.5 19.78L2.08 17.58M2.08 17.58L2.06 17.49M7.52 3.06L7.81 3.06L16.2 3.06L16.49 3.06M21.94 17.49C21.89 18.56 21.73 19.26 21.5 19.84L21.49 19.85C21.27 20.45 20.92 21 20.46 21.44L20.45 21.45L20.45 21.46C20 21.91 19.45 22.27 18.85 22.49L18.84 22.5C18.26 22.73 17.56 22.89 16.49 22.94M2.5 19.78C2.5 19.8 2.51 19.82 2.51 19.83C2.74 20.44 3.1 20.99 3.56 21.44C4.01 21.91 4.56 22.26 5.17 22.49C5.66 22.68 6.34 22.88 7.52 22.93C8.7 22.98 9.06 23 12 23C14.94 23 15.31 22.98 16.49 22.93C17.66 22.88 18.35 22.68 18.83 22.49C19.44 22.26 19.99 21.91 20.44 21.44C20.91 20.99 21.26 20.44 21.49 19.83C21.68 19.35 21.88 18.66 21.93 17.49C21.98 16.31 22 15.94 22 13C22 10.06 21.98 9.7 21.93 8.51C21.88 7.34 21.67 6.65 21.49 6.16C21.24 5.52 20.92 5.04 20.44 4.56C19.96 4.08 19.48 3.76 18.84 3.52C18.35 3.33 17.66 3.13 16.49 3.07C16.39 3.07 16.29 3.06 16.2 3.06M7.81 3.06C7.71 3.06 7.62 3.07 7.52 3.07C6.34 3.13 5.66 3.33 5.17 3.51C4.56 3.74 4.01 4.1 3.56 4.57C3.08 5.05 2.76 5.53 2.52 6.16C2.33 6.65 2.13 7.34 2.07 8.51C2.07 8.62 2.06 8.71 2.06 8.81C2.02 9.78 2.01 10.32 2.01 13C2.01 15.68 2.02 16.22 2.06 17.2C2.06 17.29 2.07 17.39 2.07 17.49C2.07 17.52 2.08 17.55 2.08 17.58C2.14 18.66 2.32 19.31 2.5 19.78M16.2 3.06C15.22 3.02 14.69 3.01 12 3.01C9.32 3.01 8.78 3.02 7.81 3.06M2.06 17.49L2.06 17.2M2.06 17.2L2.06 8.81M2.06 8.81L2.06 8.52M12 17.65C13.24 17.65 14.42 17.16 15.29 16.29C16.16 15.42 16.65 14.24 16.65 13C16.65 11.77 16.16 10.58 15.29 9.71C14.42 8.84 13.24 8.35 12 8.35C11.39 8.35 10.79 8.47 10.22 8.7C9.66 8.94 9.14 9.28 8.71 9.71C8.28 10.15 7.94 10.66 7.7 11.22C7.47 11.79 7.35 12.39 7.35 13C7.35 13.61 7.47 14.22 7.7 14.78C7.94 15.35 8.28 15.86 8.71 16.29C9.14 16.72 9.66 17.07 10.22 17.3C10.79 17.53 11.39 17.65 12 17.65ZM12 8.34C13.24 8.34 14.43 8.83 15.3 9.7C16.18 10.58 16.67 11.76 16.67 13C16.67 14.24 16.18 15.42 15.3 16.3C14.43 17.17 13.24 17.67 12 17.67C10.76 17.67 9.58 17.17 8.7 16.3C7.83 15.42 7.34 14.24 7.34 13C7.34 11.76 7.83 10.58 8.7 9.7C9.58 8.83 10.76 8.34 12 8.34ZM18.9 8.19C18.65 8.44 18.31 8.58 17.96 8.58C17.6 8.58 17.27 8.44 17.01 8.19C16.76 7.94 16.62 7.6 16.62 7.25C16.62 6.9 16.76 6.56 17.01 6.31C17.27 6.06 17.6 5.91 17.96 5.91C18.31 5.91 18.65 6.06 18.9 6.31C19.15 6.56 19.29 6.9 19.29 7.25C19.29 7.6 19.15 7.94 18.9 8.19Z" stroke="#FFFFFF" stroke-opacity="0.800000" stroke-width="1.500000" stroke-linejoin="round"/>
	</g>
</svg>
