<svg width="228.000000" height="57.998047" viewBox="0 0 228 57.998" fill="none" xmlns="http://www.w3.org/2000/svg" xmlns:xlink="http://www.w3.org/1999/xlink">
	<desc>
			Created with Pixso.
	</desc>
	<defs/>
	<path id="MONNICA" d="M40.78 15.26C40.78 13.66 41.07 11.96 41.66 10.16C42.28 8.36 43.24 6.72 44.53 5.23Q46.47 2.95 49.47 1.47Q52.47 0 56.64 0C59.46 0 61.89 0.5 63.94 1.51C66.03 2.5 67.74 3.75 69.09 5.27C70.44 6.79 71.44 8.44 72.09 10.25Q73.06 12.9 73.06 15.26C73.06 16.3 72.91 17.4 72.6 18.55C72.31 19.71 71.88 20.86 71.29 22.01C70.72 23.14 69.99 24.22 69.09 25.26C68.19 26.27 67.12 27.17 65.89 27.96C64.68 28.75 63.3 29.38 61.75 29.86C60.23 30.31 58.53 30.53 56.64 30.53Q52.47 30.53 49.47 29.06Q46.47 27.54 44.53 25.26C43.24 23.74 42.28 22.1 41.66 20.33C41.07 18.52 40.78 16.84 40.78 15.26ZM104.47 0.5L106.41 0.5L106.41 30.53L106.2 30.53L82.78 7.46L82.61 7.46L82.61 30.03L80.67 30.03L80.67 0L80.88 0L104.3 23.07L104.47 23.07L104.47 0.5ZM140.74 0.5L142.68 0.5L142.68 30.53L142.47 30.53L119.05 7.46L118.88 7.46L118.88 30.03L116.94 30.03L116.94 0L117.15 0L140.58 23.07L140.74 23.07L140.74 0.5ZM195.85 24.58L197.11 25.72C196.75 26.15 196.21 26.64 195.51 27.2C194.81 27.76 193.92 28.3 192.85 28.8C191.81 29.28 190.57 29.69 189.14 30.03C187.73 30.36 186.13 30.53 184.33 30.53C181.48 30.53 179.04 30.1 176.98 29.22Q173.9 27.87 171.92 25.72C170.6 24.26 169.61 22.6 168.97 20.75C168.35 18.86 168.04 16.94 168.04 14.97Q168.04 11.55 169.22 8.81C170.01 6.95 171.12 5.38 172.55 4.09C173.99 2.76 175.7 1.75 177.7 1.05C179.73 0.35 181.96 0 184.41 0C186.1 0 187.6 0.16 188.93 0.5C190.25 0.84 191.4 1.3 192.39 1.89C193.37 2.48 194.19 3.19 194.83 4C195.51 4.82 196.06 5.7 196.48 6.66L193.36 6.66C193.16 6.07 192.81 5.49 192.3 4.93C191.82 4.34 191.19 3.82 190.4 3.37C189.64 2.92 188.76 2.55 187.74 2.27C186.76 1.99 185.66 1.85 184.45 1.85Q181.98 1.85 179.84 2.69Q179.81 2.7 179.79 2.71Q179.65 2.76 179.52 2.82C178.02 3.47 176.73 4.37 175.63 5.52C174.54 6.67 173.68 8.05 173.06 9.65C172.47 11.23 172.17 12.97 172.17 14.88C172.17 16.68 172.45 18.41 173.02 20.07C173.61 21.73 174.47 23.19 175.59 24.46C176.72 25.72 178.12 26.74 179.81 27.5C181.5 28.25 183.44 28.63 185.64 28.63C189.57 28.63 192.98 27.28 195.85 24.58ZM2.87 0.5L16.41 25.85L16.58 25.85L30.25 0.5L33.16 0.5L33.16 30.03L29.32 30.03L29.32 6.11L29.16 6.11L15.82 30.53L15.06 30.53L2.02 5.94L1.85 5.94L1.85 30.03L0 30.03L0 0.5L2.87 0.5ZM154.91 0.5L158.75 0.5L158.75 30.03L154.91 30.03L154.91 0.5ZM219.85 21.34L205.29 21.34L201.58 30.03L199.64 30.03L212.13 0.5L214.24 0.5L228 30.03L223.9 30.03L219.85 21.34ZM44.91 15.26C44.91 17.23 45.21 19.05 45.8 20.7C46.42 22.33 47.25 23.74 48.29 24.92Q49.14 25.86 50.14 26.59Q51.03 27.23 52.04 27.71C53.48 28.35 55.04 28.68 56.73 28.68C58.39 28.68 59.95 28.35 61.41 27.71C62.9 27.03 64.2 26.1 65.29 24.92Q65.32 24.89 65.35 24.87Q67 23.11 67.95 20.7Q68.92 18.22 68.92 15.26Q68.92 12.31 67.95 9.86Q66.98 7.38 65.29 5.6C64.2 4.42 62.9 3.51 61.41 2.86C59.95 2.19 58.39 1.85 56.73 1.85C55.04 1.85 53.48 2.19 52.04 2.86C50.61 3.51 49.36 4.42 48.29 5.6C47.25 6.79 46.42 8.21 45.8 9.86C45.21 11.5 44.91 13.3 44.91 15.26ZM218.96 19.44L212.34 5.23L212.17 5.23L206.09 19.44L218.96 19.44Z" fill="#FFFFFF" fill-opacity="1.000000" fill-rule="evenodd"/>
	<line id="Line 1" x1="6.000000" y1="50.500000" x2="52.037109" y2="50.500000" stroke="#FFFFFF" stroke-opacity="1.000000" stroke-width="1.000000"/>
	<path id="Pearl Jewellery" d="M61.83 54.86L61.83 44.17L64.88 44.17C67.15 44.17 68.41 45.25 68.41 47.16C68.41 49.11 67.14 50.2 64.88 50.2L62.92 50.2L62.92 54.86L61.83 54.86ZM94.5 54.99C93.63 54.99 93.06 54.41 93.06 53.22L93.06 44.17L94.12 44.17L94.12 53.16C94.12 53.68 94.31 54.02 94.81 54.02C95.04 54.02 95.3 53.96 95.53 53.88L95.55 54.79C95.23 54.9 94.84 54.99 94.5 54.99ZM104.4 55.02C102.42 55.02 101.13 53.79 100.98 51.74L102.06 51.61C102.16 53.15 103.01 53.99 104.4 53.99C105.92 53.99 106.69 52.99 106.69 50.99L106.69 45.19L102.36 45.19L102.36 44.17L107.78 44.17L107.78 51.05C107.78 53.59 106.55 55.02 104.4 55.02ZM140.17 54.99C139.3 54.99 138.73 54.41 138.73 53.22L138.73 44.17L139.79 44.17L139.79 53.16C139.79 53.68 139.97 54.02 140.48 54.02C140.71 54.02 140.97 53.96 141.2 53.88L141.22 54.79C140.89 54.9 140.51 54.99 140.17 54.99ZM144.46 54.99C143.59 54.99 143.02 54.41 143.02 53.22L143.02 44.17L144.08 44.17L144.08 53.16C144.08 53.68 144.27 54.02 144.77 54.02C145 54.02 145.26 53.96 145.49 53.88L145.51 54.79C145.19 54.9 144.8 54.99 144.46 54.99ZM62.92 49.19L64.77 49.19C66.45 49.19 67.31 48.5 67.31 47.18C67.31 45.86 66.45 45.19 64.77 45.19L62.92 45.19L62.92 49.19ZM76.14 50.71C76.14 50.92 76.12 51.18 76.09 51.37L70.55 51.37C70.59 53.02 71.51 54.02 73 54.02C73.82 54.02 74.48 53.81 75.17 53.07L75.91 53.71C75.02 54.65 74.15 54.99 72.98 54.99C70.68 54.99 69.5 53.27 69.5 51.12C69.5 48.99 70.66 47.18 72.86 47.18C75.17 47.18 76.14 48.99 76.14 50.71ZM81.05 47.18C82.96 47.18 84.06 48.27 84.06 50.16L84.06 54.86L83.1 54.86L83.03 53.7C82.44 54.54 81.51 54.99 80.32 54.99C78.68 54.99 77.71 54.13 77.71 52.67C77.71 51.91 78.02 51.32 78.57 50.99C79.15 50.65 79.96 50.51 81.45 50.51L83 50.51L83 50.16C83 48.84 82.31 48.12 81.04 48.12C80.09 48.12 79.35 48.53 78.74 49.37L77.97 48.73C78.78 47.67 79.77 47.18 81.05 47.18ZM90.1 47.18C90.56 47.18 90.99 47.27 91.4 47.5L90.88 48.36C90.53 48.21 90.2 48.13 89.88 48.13C88.71 48.13 87.86 49.01 87.86 50.65L87.86 54.86L86.8 54.86L86.8 47.3L87.86 47.3L87.86 48.44C88.41 47.44 89.33 47.18 90.1 47.18ZM116.83 50.71C116.83 50.92 116.82 51.18 116.79 51.37L111.25 51.37C111.28 53.02 112.2 54.02 113.69 54.02C114.52 54.02 115.18 53.81 115.87 53.07L116.6 53.71C115.71 54.65 114.84 54.99 113.67 54.99C111.37 54.99 110.19 53.27 110.19 51.12C110.19 48.99 111.36 47.18 113.55 47.18C115.87 47.18 116.83 48.99 116.83 50.71ZM136.5 50.71C136.5 50.92 136.49 51.18 136.46 51.37L130.92 51.37C130.95 53.02 131.87 54.02 133.36 54.02C134.19 54.02 134.85 53.81 135.54 53.07L136.27 53.71C135.38 54.65 134.51 54.99 133.34 54.99C131.04 54.99 129.86 53.27 129.86 51.12C129.86 48.99 131.03 47.18 133.22 47.18C135.54 47.18 136.5 48.99 136.5 50.71ZM153.4 50.71C153.4 50.92 153.39 51.18 153.36 51.37L147.82 51.37C147.85 53.02 148.77 54.02 150.26 54.02C151.09 54.02 151.75 53.81 152.44 53.07L153.17 53.71C152.28 54.65 151.41 54.99 150.24 54.99C147.94 54.99 146.76 53.27 146.76 51.12C146.76 48.99 147.92 47.18 150.12 47.18C152.44 47.18 153.4 48.99 153.4 50.71ZM158.99 47.18C159.45 47.18 159.88 47.27 160.3 47.5L159.78 48.36C159.42 48.21 159.1 48.13 158.78 48.13C157.61 48.13 156.75 49.01 156.75 50.65L156.75 54.86L155.69 54.86L155.69 47.3L156.75 47.3L156.75 48.44C157.31 47.44 158.23 47.18 158.99 47.18ZM120.38 54.86L118.16 47.3L119.29 47.3L120.92 53.27L122.92 47.3L123.88 47.3L125.86 53.27L127.5 47.3L128.62 47.3L126.41 54.86L125.42 54.86L123.41 48.76L121.37 54.86L120.38 54.86ZM163.07 57.99L164.33 54.77L161.13 47.3L162.29 47.3L164.9 53.53L167.19 47.3L168.35 47.3L164.21 57.99L163.07 57.99ZM72.86 48.07C71.49 48.07 70.65 49.14 70.55 50.48L75.13 50.48C75.13 50.45 75.11 50.37 75.11 50.23C75.04 49.01 74.25 48.07 72.86 48.07ZM113.55 48.07C112.18 48.07 111.34 49.14 111.25 50.48L115.82 50.48C115.82 50.45 115.81 50.37 115.81 50.23C115.73 49.01 114.95 48.07 113.55 48.07ZM133.22 48.07C131.85 48.07 131.01 49.14 130.92 50.48L135.49 50.48C135.49 50.45 135.48 50.37 135.48 50.23C135.4 49.01 134.62 48.07 133.22 48.07ZM150.12 48.07C148.75 48.07 147.91 49.14 147.82 50.48L152.39 50.48C152.39 50.45 152.38 50.37 152.38 50.23C152.3 49.01 151.52 48.07 150.12 48.07ZM80.62 54.11C82.08 54.11 83 53.08 83 51.48L83 51.37L81.55 51.37C80.15 51.37 79.55 51.46 79.18 51.75C78.91 51.97 78.77 52.3 78.77 52.73C78.77 53.58 79.49 54.11 80.62 54.11Z" fill="#FFFFFF" fill-opacity="1.000000" fill-rule="evenodd"/>
	<line id="Line 2" x1="176.721680" y1="50.500000" x2="222.758789" y2="50.500000" stroke="#FFFFFF" stroke-opacity="1.000000" stroke-width="1.000000"/>
</svg>
