<svg width="228" height="60" viewBox="0 0 228 60" fill="none" xmlns="http://www.w3.org/2000/svg">
<path d="M2.86965 0.506133L16.4161 25.8551H16.5849L30.258 0.506133H33.1698V30.0307H29.3296V6.1158H29.1607L15.8253 30.5368H15.0657L2.02564 5.94708H1.85683V30.0307H0V0.506133H2.86965Z" fill="#0D0300"/>
<path d="M40.7815 15.2684C40.7815 13.6656 41.0769 11.9645 41.6677 10.1649C42.2866 8.36529 43.2432 6.72035 44.5373 5.23006C45.8315 3.71166 47.4773 2.46038 49.4748 1.47623C51.4723 0.492075 53.8637 0 56.649 0C59.4623 0 61.8959 0.506134 63.9497 1.5184C66.0316 2.50256 67.7478 3.75383 69.0982 5.27224C70.4486 6.79064 71.4474 8.44964 72.0945 10.2492C72.7415 12.0207 73.0651 13.6938 73.0651 15.2684C73.0651 16.3088 72.9103 17.4054 72.6009 18.5583C72.3195 19.7111 71.8834 20.864 71.2926 22.0169C70.73 23.1416 69.9985 24.2242 69.0982 25.2646C68.1979 26.2768 67.1288 27.1766 65.8909 27.964C64.6812 28.7513 63.3026 29.3839 61.7552 29.862C60.236 30.3119 58.5339 30.5368 56.649 30.5368C53.8637 30.5368 51.4723 30.0447 49.4748 29.0606C47.4773 28.0483 45.8315 26.783 44.5373 25.2646C43.2432 23.7462 42.2866 22.1012 41.6677 20.3298C41.0769 18.5302 40.7815 16.843 40.7815 15.2684ZM44.9171 15.2684C44.9171 17.2367 45.2125 19.0504 45.8034 20.7094C46.4223 22.3402 47.2522 23.7462 48.2932 24.9271C49.3623 26.1081 50.6142 27.036 52.0491 27.7109C53.4839 28.3576 55.0453 28.681 56.7334 28.681C58.3933 28.681 59.9547 28.3576 61.4176 27.7109C62.9087 27.036 64.2029 26.1081 65.3001 24.9271C66.4255 23.7462 67.3117 22.3402 67.9588 20.7094C68.6059 19.0504 68.9294 17.2367 68.9294 15.2684C68.9294 13.3001 68.6059 11.5005 67.9588 9.86963C67.3117 8.21063 66.4255 6.79064 65.3001 5.60966C64.2029 4.42868 62.9087 3.51482 61.4176 2.8681C59.9547 2.19325 58.3933 1.85583 56.7334 1.85583C55.0453 1.85583 53.4839 2.19325 52.0491 2.8681C50.6142 3.51482 49.3623 4.42868 48.2932 5.60966C47.2522 6.79064 46.4223 8.21063 45.8034 9.86963C45.2125 11.5005 44.9171 13.3001 44.9171 15.2684Z" fill="#0D0300"/>
<path d="M104.472 0.506133H106.414V30.5368H106.203L82.7811 7.46549H82.6123V30.0307H80.6711V0H80.8821L104.304 23.0713H104.472V0.506133Z" fill="#0D0300"/>
<path d="M140.749 0.506133H142.69V30.5368H142.479L119.057 7.46549H118.889V30.0307H116.947V0H117.158L140.58 23.0713H140.749V0.506133Z" fill="#0D0300"/>
<path d="M154.912 0.506133H158.752V30.0307H154.912V0.506133Z" fill="#0D0300"/>
<path d="M195.852 24.5897L197.118 25.7285C196.752 26.1503 196.218 26.6424 195.514 27.2048C194.811 27.7671 193.925 28.3014 192.856 28.8075C191.815 29.2855 190.577 29.6933 189.142 30.0307C187.735 30.3681 186.132 30.5368 184.331 30.5368C181.49 30.5368 179.042 30.101 176.988 29.2293C174.934 28.3295 173.246 27.1626 171.924 25.7285C170.602 24.2664 169.617 22.6074 168.97 20.7515C168.351 18.8676 168.042 16.9415 168.042 14.9732C168.042 12.6956 168.435 10.6429 169.223 8.81518C170.011 6.95936 171.122 5.38471 172.557 4.09126C173.992 2.76968 175.708 1.75741 177.706 1.05445C179.731 0.351482 181.968 0 184.415 0C186.104 0 187.609 0.168711 188.931 0.506133C190.253 0.843558 191.407 1.30751 192.391 1.898C193.376 2.4885 194.192 3.19146 194.839 4.0069C195.514 4.82234 196.063 5.70808 196.485 6.66411H193.362C193.165 6.07362 192.813 5.49719 192.307 4.93482C191.829 4.34432 191.196 3.82413 190.408 3.37423C189.648 2.92434 188.762 2.55879 187.749 2.27761C186.765 1.99642 185.667 1.85583 184.458 1.85583C182.685 1.85583 181.039 2.17919 179.52 2.82592C178.029 3.47265 176.735 4.37244 175.638 5.52531C174.54 6.67817 173.682 8.05598 173.063 9.65874C172.473 11.2334 172.177 12.9767 172.177 14.8888C172.177 16.6884 172.459 18.4177 173.021 20.0767C173.612 21.7357 174.47 23.1979 175.596 24.4632C176.721 25.7285 178.128 26.7408 179.816 27.5C181.504 28.2592 183.445 28.6388 185.639 28.6388C189.578 28.6388 192.982 27.2891 195.852 24.5897Z" fill="#0D0300"/>
<path d="M219.855 21.342H205.296L201.582 30.0307H199.641L212.133 0.506133H214.243L228 30.0307H223.907L219.855 21.342ZM218.969 19.444L212.344 5.23006H212.175L206.098 19.444H218.969Z" fill="#0D0300"/>
<line x1="6" y1="52.5" x2="52.0372" y2="52.5" stroke="#0D0300"/>
<path d="M61.832 56.8718V46.1816H64.8858C67.157 46.1816 68.4154 47.2553 68.4154 49.1724C68.4154 51.1203 67.1417 52.2092 64.8858 52.2092H62.9216V56.8718H61.832ZM62.9216 51.197H64.7784C66.4511 51.197 67.3105 50.5068 67.3105 49.1878C67.3105 47.8688 66.4511 47.1939 64.7784 47.1939H62.9216V51.197Z" fill="#0D0300"/>
<path d="M76.1455 52.7154C76.1455 52.9301 76.1302 53.1908 76.0995 53.3749H70.5597C70.5904 55.0313 71.5111 56.0283 72.9997 56.0283C73.8283 56.0283 74.4882 55.8135 75.1788 55.0773L75.9153 55.7215C75.0253 56.6571 74.1506 56.9945 72.9843 56.9945C70.6824 56.9945 69.5008 55.2767 69.5008 53.1295C69.5008 50.9976 70.6671 49.1878 72.8615 49.1878C75.1788 49.1878 76.1455 50.9976 76.1455 52.7154ZM72.8615 50.0773C71.4958 50.0773 70.6518 51.151 70.5597 52.4853H75.1327C75.1327 52.4546 75.1174 52.378 75.1174 52.2399C75.0406 51.0129 74.258 50.0773 72.8615 50.0773Z" fill="#0D0300"/>
<path d="M81.0596 49.1878C82.9625 49.1878 84.0674 50.2767 84.0674 52.1632V56.8718H83.1006L83.0392 55.7062C82.4408 56.5497 81.52 56.9945 80.3231 56.9945C78.6811 56.9945 77.7143 56.1356 77.7143 54.6786C77.7143 53.9117 78.0212 53.3289 78.5736 52.9915C79.1568 52.654 79.9701 52.516 81.4586 52.516H83.0086V52.1632C83.0086 50.8442 82.318 50.1234 81.0443 50.1234C80.0929 50.1234 79.3563 50.5375 78.7424 51.381L77.9752 50.7369C78.7885 49.6786 79.7706 49.1878 81.0596 49.1878ZM80.63 56.1203C82.0878 56.1203 83.0086 55.0927 83.0086 53.4823V53.3749H81.5507C80.1542 53.3749 79.5558 53.4669 79.1875 53.7583C78.9112 53.9731 78.7731 54.3105 78.7731 54.7399C78.7731 55.5835 79.4944 56.1203 80.63 56.1203Z" fill="#0D0300"/>
<path d="M90.1007 49.1878C90.5611 49.1878 90.9907 49.2798 91.4051 49.5099L90.8833 50.3688C90.5304 50.2154 90.2081 50.1387 89.8858 50.1387C88.7196 50.1387 87.8602 51.0129 87.8602 52.654V56.8718H86.8014V49.3105H87.8602V50.4454C88.4127 49.4485 89.3334 49.1878 90.1007 49.1878Z" fill="#0D0300"/>
<path d="M94.5102 56.9945C93.6355 56.9945 93.0677 56.4117 93.0677 55.2307V46.1816H94.1265V55.1694C94.1265 55.6908 94.3107 56.0283 94.8171 56.0283C95.0473 56.0283 95.3082 55.9669 95.5384 55.8902L95.5537 56.7951C95.2314 56.9025 94.8478 56.9945 94.5102 56.9945Z" fill="#0D0300"/>
<path d="M104.408 57.0252C102.428 57.0252 101.139 55.7982 100.986 53.743L102.06 53.6203C102.167 55.154 103.011 55.9976 104.408 55.9976C105.927 55.9976 106.694 55.0007 106.694 52.9915V47.1939H102.367V46.1816H107.784V53.0528C107.784 55.5988 106.556 57.0252 104.408 57.0252Z" fill="#0D0300"/>
<path d="M116.839 52.7154C116.839 52.9301 116.824 53.1908 116.793 53.3749H111.253C111.284 55.0313 112.205 56.0283 113.693 56.0283C114.522 56.0283 115.182 55.8135 115.873 55.0773L116.609 55.7215C115.719 56.6571 114.844 56.9945 113.678 56.9945C111.376 56.9945 110.195 55.2767 110.195 53.1295C110.195 50.9976 111.361 49.1878 113.555 49.1878C115.873 49.1878 116.839 50.9976 116.839 52.7154ZM113.555 50.0773C112.19 50.0773 111.346 51.151 111.253 52.4853H115.827C115.827 52.4546 115.811 52.378 115.811 52.2399C115.734 51.0129 114.952 50.0773 113.555 50.0773Z" fill="#0D0300"/>
<path d="M120.388 56.8718L118.163 49.3105H119.298L120.925 55.2767L122.92 49.3105H123.887L125.866 55.2767L127.508 49.3105H128.628L126.419 56.8718H125.421L123.411 50.7675L121.37 56.8718H120.388Z" fill="#0D0300"/>
<path d="M136.508 52.7154C136.508 52.9301 136.493 53.1908 136.462 53.3749H130.922C130.953 55.0313 131.874 56.0283 133.362 56.0283C134.191 56.0283 134.851 55.8135 135.541 55.0773L136.278 55.7215C135.388 56.6571 134.513 56.9945 133.347 56.9945C131.045 56.9945 129.864 55.2767 129.864 53.1295C129.864 50.9976 131.03 49.1878 133.224 49.1878C135.541 49.1878 136.508 50.9976 136.508 52.7154ZM133.224 50.0773C131.858 50.0773 131.014 51.151 130.922 52.4853H135.495C135.495 52.4546 135.48 52.378 135.48 52.2399C135.403 51.0129 134.621 50.0773 133.224 50.0773Z" fill="#0D0300"/>
<path d="M140.179 56.9945C139.305 56.9945 138.737 56.4117 138.737 55.2307V46.1816H139.796V55.1694C139.796 55.6908 139.98 56.0283 140.486 56.0283C140.716 56.0283 140.977 55.9669 141.208 55.8902L141.223 56.7951C140.901 56.9025 140.517 56.9945 140.179 56.9945Z" fill="#0D0300"/>
<path d="M144.469 56.9945C143.594 56.9945 143.026 56.4117 143.026 55.2307V46.1816H144.085V55.1694C144.085 55.6908 144.269 56.0283 144.776 56.0283C145.006 56.0283 145.267 55.9669 145.497 55.8902L145.512 56.7951C145.19 56.9025 144.807 56.9945 144.469 56.9945Z" fill="#0D0300"/>
<path d="M153.408 52.7154C153.408 52.9301 153.393 53.1908 153.362 53.3749H147.823C147.853 55.0313 148.774 56.0283 150.262 56.0283C151.091 56.0283 151.751 55.8135 152.442 55.0773L153.178 55.7215C152.288 56.6571 151.413 56.9945 150.247 56.9945C147.945 56.9945 146.764 55.2767 146.764 53.1295C146.764 50.9976 147.93 49.1878 150.124 49.1878C152.442 49.1878 153.408 50.9976 153.408 52.7154ZM150.124 50.0773C148.759 50.0773 147.915 51.151 147.823 52.4853H152.396C152.396 52.4546 152.38 52.378 152.38 52.2399C152.303 51.0129 151.521 50.0773 150.124 50.0773Z" fill="#0D0300"/>
<path d="M158.998 49.1878C159.458 49.1878 159.888 49.2798 160.302 49.5099L159.78 50.3688C159.427 50.2154 159.105 50.1387 158.783 50.1387C157.617 50.1387 156.757 51.0129 156.757 52.654V56.8718H155.698V49.3105H156.757V50.4454C157.31 49.4485 158.23 49.1878 158.998 49.1878Z" fill="#0D0300"/>
<path d="M163.08 60.0007L164.338 56.7798L161.131 49.3105H162.297L164.906 55.5375L167.192 49.3105H168.358L164.215 60.0007H163.08Z" fill="#0D0300"/>
<line x1="176.722" y1="52.5" x2="222.759" y2="52.5" stroke="#0D0300"/>
</svg>
