<svg width="24.000000" height="24.000000" viewBox="0 0 24 24" fill="none" xmlns="http://www.w3.org/2000/svg" xmlns:xlink="http://www.w3.org/1999/xlink">
	<desc>
			Created with Pixso.
	</desc>
	<defs>
		<clipPath id="clip321_3445">
			<rect id="fi-rs-settings-sliders" rx="0.000000" width="23.000000" height="23.000000" transform="translate(0.500000 0.500000)" fill="white" fill-opacity="0"/>
		</clipPath>
	</defs>
	<g clip-path="url(#clip321_3445)">
		<path id="Vector" d="M10.93 2.75C10.71 1.96 10.24 1.26 9.59 0.76C8.94 0.26 8.15 0 7.33 0C6.51 0 5.71 0.26 5.06 0.76C4.41 1.26 3.95 1.96 3.73 2.75L0 2.75L0 4.75L3.73 4.75C3.95 5.53 4.41 6.23 5.06 6.73C5.71 7.23 6.51 7.5 7.33 7.5C8.15 7.5 8.94 7.23 9.59 6.73C10.24 6.23 10.71 5.53 10.93 4.75L23.99 4.75L23.99 2.75L10.93 2.75ZM7.33 5.5C6.98 5.5 6.64 5.39 6.36 5.2C6.07 5.01 5.84 4.74 5.71 4.41C5.58 4.09 5.54 3.74 5.61 3.4C5.68 3.07 5.85 2.75 6.09 2.51C6.34 2.26 6.65 2.1 6.99 2.03C7.33 1.96 7.68 2 8 2.13C8.32 2.26 8.59 2.49 8.78 2.77C8.98 3.06 9.08 3.4 9.08 3.75C9.08 4.21 8.89 4.65 8.56 4.98C8.24 5.31 7.79 5.5 7.33 5.5Z" fill="#0D0300" fill-opacity="1.000000" fill-rule="nonzero"/>
		<path id="Vector" d="M16.66 8.25C15.84 8.25 15.05 8.52 14.4 9.01C13.75 9.51 13.28 10.21 13.06 11L0 11L0 13L13.06 13C13.28 13.78 13.75 14.48 14.4 14.98C15.05 15.48 15.84 15.75 16.66 15.75C17.48 15.75 18.28 15.48 18.93 14.98C19.58 14.48 20.04 13.78 20.26 13L23.99 13L23.99 11L20.26 11C20.04 10.21 19.57 9.51 18.92 9.01C18.27 8.52 17.48 8.25 16.66 8.25ZM16.66 13.75C16.32 13.75 15.98 13.64 15.69 13.45C15.4 13.26 15.18 12.99 15.05 12.66C14.91 12.34 14.88 11.99 14.95 11.65C15.01 11.31 15.18 11 15.42 10.76C15.67 10.51 15.98 10.35 16.32 10.28C16.66 10.21 17.01 10.25 17.33 10.38C17.65 10.51 17.92 10.74 18.12 11.02C18.31 11.31 18.41 11.65 18.41 12C18.41 12.46 18.23 12.9 17.9 13.23C17.57 13.56 17.13 13.75 16.66 13.75Z" fill="#0D0300" fill-opacity="1.000000" fill-rule="nonzero"/>
		<path id="Vector" d="M7.33 16.5C6.51 16.5 5.72 16.77 5.06 17.26C4.41 17.76 3.95 18.46 3.73 19.25L0 19.25L0 21.25L3.73 21.25C3.95 22.03 4.41 22.73 5.06 23.23C5.71 23.73 6.51 24 7.33 24C8.15 24 8.94 23.73 9.59 23.23C10.24 22.73 10.71 22.03 10.93 21.25L23.99 21.25L23.99 19.25L10.93 19.25C10.71 18.46 10.24 17.76 9.59 17.26C8.94 16.77 8.15 16.5 7.33 16.5ZM7.33 22C6.98 22 6.64 21.89 6.36 21.7C6.07 21.51 5.84 21.24 5.71 20.91C5.58 20.59 5.54 20.24 5.61 19.9C5.68 19.56 5.85 19.25 6.09 19.01C6.34 18.76 6.65 18.6 6.99 18.53C7.33 18.46 7.68 18.5 8 18.63C8.32 18.76 8.59 18.99 8.78 19.27C8.98 19.56 9.08 19.9 9.08 20.25C9.08 20.71 8.89 21.15 8.56 21.48C8.24 21.81 7.79 22 7.33 22Z" fill="#0D0300" fill-opacity="1.000000" fill-rule="nonzero"/>
	</g>
</svg>
