<svg width="16.000000" height="16.000000" viewBox="0 0 16 16" fill="none" xmlns="http://www.w3.org/2000/svg" xmlns:xlink="http://www.w3.org/1999/xlink">
	<desc>
			Created with Pixso.
	</desc>
	<defs/>
	<path id="Vector" d="M8 16C6.41 16 4.87 15.53 3.55 14.65C2.23 13.77 1.21 12.52 0.6 11.06C0 9.59 -0.16 7.99 0.15 6.43C0.46 4.88 1.22 3.46 2.34 2.34C3.46 1.22 4.88 0.46 6.43 0.15C7.99 -0.16 9.59 0 11.06 0.6C12.52 1.21 13.77 2.24 14.65 3.55C15.53 4.87 16 6.41 16 8C15.99 10.12 15.15 12.15 13.65 13.65C12.15 15.15 10.12 15.99 8 16ZM8 1.33C6.68 1.33 5.39 1.72 4.29 2.45C3.19 3.18 2.34 4.23 1.84 5.44C1.33 6.66 1.2 8 1.46 9.3C1.71 10.59 2.35 11.78 3.28 12.71C4.21 13.64 5.4 14.28 6.69 14.53C7.99 14.79 9.33 14.66 10.55 14.16C11.76 13.65 12.81 12.8 13.54 11.7C14.27 10.6 14.66 9.31 14.66 8C14.66 6.23 13.96 4.53 12.71 3.28C11.46 2.03 9.76 1.33 8 1.33Z" fill="#3A3A3A" fill-opacity="1.000000" fill-rule="nonzero"/>
	<path id="Vector" d="M9.33 12.66L8 12.66L8 8L6.66 8L6.66 6.66L8 6.66C8.35 6.66 8.69 6.8 8.94 7.05C9.19 7.3 9.33 7.64 9.33 8L9.33 12.66Z" fill="#3A3A3A" fill-opacity="1.000000" fill-rule="nonzero"/>
	<path id="Vector" d="M9 4.33C9 4.88 8.55 5.33 8 5.33C7.44 5.33 7 4.88 7 4.33C7 3.77 7.44 3.33 8 3.33C8.55 3.33 9 3.77 9 4.33Z" fill="#3A3A3A" fill-opacity="1.000000" fill-rule="evenodd"/>
</svg>
