<svg width="16.000000" height="16.000000" viewBox="0 0 16 16" fill="none" xmlns="http://www.w3.org/2000/svg" xmlns:xlink="http://www.w3.org/1999/xlink">
	<desc>
			Created with Pixso.
	</desc>
	<defs/>
	<path id="Vector" d="M8 16C6.41 16 4.87 15.53 3.55 14.65C2.23 13.77 1.21 12.52 0.6 11.06C0 9.59 -0.16 7.99 0.15 6.43C0.46 4.88 1.22 3.46 2.34 2.34C3.46 1.22 4.88 0.46 6.43 0.15C7.99 -0.16 9.59 0 11.06 0.6C12.52 1.21 13.77 2.24 14.65 3.55C15.53 4.87 16 6.41 16 8C15.99 10.12 15.15 12.15 13.65 13.65C12.15 15.15 10.12 15.99 8 16ZM8 1.33C6.68 1.33 5.39 1.72 4.29 2.45C3.19 3.18 2.34 4.23 1.84 5.44C1.33 6.66 1.2 8 1.46 9.3C1.71 10.59 2.35 11.78 3.28 12.71C4.21 13.64 5.4 14.28 6.69 14.53C7.99 14.79 9.33 14.66 10.55 14.16C11.76 13.65 12.81 12.8 13.54 11.7C14.27 10.6 14.66 9.31 14.66 8C14.66 6.23 13.96 4.53 12.71 3.28C11.46 2.03 9.76 1.33 8 1.33Z" fill="#3A3A3A" fill-opacity="1.000000" fill-rule="nonzero"/>
	<path id="Vector" d="M8.66 10L7.33 10L7.33 9.5C7.32 9.03 7.43 8.57 7.66 8.16C7.89 7.74 8.23 7.4 8.64 7.17C8.88 7.03 9.08 6.82 9.2 6.57C9.32 6.31 9.36 6.03 9.3 5.75C9.25 5.49 9.12 5.25 8.93 5.06C8.74 4.87 8.5 4.74 8.24 4.69C8.05 4.65 7.85 4.66 7.66 4.71C7.47 4.76 7.29 4.85 7.14 4.97C6.99 5.1 6.87 5.25 6.79 5.43C6.7 5.61 6.66 5.8 6.66 6L5.33 6C5.33 5.52 5.45 5.06 5.69 4.66C5.93 4.25 6.27 3.91 6.67 3.68C7.08 3.45 7.54 3.33 8.02 3.33C8.49 3.33 8.95 3.46 9.35 3.7C9.76 3.94 10.09 4.28 10.32 4.69C10.55 5.1 10.67 5.57 10.66 6.04C10.65 6.51 10.52 6.97 10.28 7.37C10.04 7.77 9.69 8.1 9.28 8.33C9.08 8.45 8.92 8.63 8.81 8.83C8.71 9.04 8.65 9.27 8.66 9.5L8.66 10Z" fill="#3A3A3A" fill-opacity="1.000000" fill-rule="nonzero"/>
	<path id="Vector" d="M7.33 11.33L8.66 11.33L8.66 12.66L7.33 12.66L7.33 11.33Z" fill="#3A3A3A" fill-opacity="1.000000" fill-rule="evenodd"/>
</svg>
