<svg width="16.000000" height="15.806641" viewBox="0 0 16 15.8066" fill="none" xmlns="http://www.w3.org/2000/svg" xmlns:xlink="http://www.w3.org/1999/xlink">
	<desc>
			Created with Pixso.
	</desc>
	<defs/>
	<path id="Vector" d="M8.89 0.34C8.64 0.12 8.32 0 8 0C7.67 0 7.35 0.12 7.1 0.34L0 6.74L0 13.67C0 14.23 0.22 14.78 0.62 15.18C1.02 15.58 1.56 15.8 2.13 15.8L13.86 15.8C14.43 15.8 14.97 15.58 15.37 15.18C15.77 14.78 16 14.23 16 13.67L16 6.74L8.89 0.34ZM10 14.47L6 14.47L6 11.12C6 10.58 6.21 10.08 6.58 9.7C6.96 9.33 7.46 9.12 8 9.12C8.53 9.12 9.03 9.33 9.41 9.7C9.78 10.08 10 10.58 10 11.12L10 14.47ZM14.66 13.67C14.66 13.88 14.58 14.08 14.43 14.23C14.28 14.38 14.07 14.47 13.86 14.47L11.33 14.47L11.33 11.12C11.33 10.23 10.98 9.38 10.35 8.76C9.73 8.13 8.88 7.78 8 7.78C7.11 7.78 6.26 8.13 5.64 8.76C5.01 9.38 4.66 10.23 4.66 11.12L4.66 14.47L2.13 14.47C1.92 14.47 1.71 14.38 1.56 14.23C1.41 14.08 1.33 13.88 1.33 13.67L1.33 7.33L8 1.33L14.66 7.33L14.66 13.67Z" fill="#3A3A3A" fill-opacity="1.000000" fill-rule="nonzero"/>
</svg>
