<svg width="16.000000" height="14.921875" viewBox="0 0 16 14.9219" fill="none" xmlns="http://www.w3.org/2000/svg" xmlns:xlink="http://www.w3.org/1999/xlink">
	<desc>
			Created with Pixso.
	</desc>
	<defs/>
	<path id="Vector" d="M11.66 0C10.91 0.01 10.18 0.22 9.53 0.6C8.89 0.99 8.36 1.54 8 2.19C7.63 1.54 7.1 0.99 6.46 0.6C5.81 0.22 5.08 0.01 4.33 0C3.13 0.05 2.01 0.57 1.19 1.45C0.38 2.33 -0.05 3.5 0 4.69C0 9.21 7.3 14.42 7.61 14.64L8 14.92L8.38 14.64C8.69 14.42 15.99 9.21 15.99 4.69C16.04 3.5 15.61 2.33 14.8 1.45C13.98 0.57 12.86 0.05 11.66 0ZM8 13.28C5.83 11.66 1.33 7.68 1.33 4.69C1.29 3.85 1.58 3.02 2.14 2.39C2.7 1.76 3.49 1.38 4.33 1.33C5.17 1.38 5.96 1.76 6.52 2.39C7.08 3.02 7.37 3.85 7.33 4.69L8.66 4.69C8.62 3.85 8.91 3.02 9.47 2.39C10.03 1.76 10.82 1.38 11.66 1.33C12.5 1.38 13.29 1.76 13.85 2.39C14.41 3.02 14.7 3.85 14.66 4.69C14.66 7.68 10.16 11.66 8 13.28Z" fill="#3A3A3A" fill-opacity="1.000000" fill-rule="nonzero"/>
</svg>
