<svg width="12.000977" height="16.000000" viewBox="0 0 12.001 16" fill="none" xmlns="http://www.w3.org/2000/svg" xmlns:xlink="http://www.w3.org/1999/xlink">
	<desc>
			Created with Pixso.
	</desc>
	<defs/>
	<path id="Vector" d="M12 16L10.66 16L10.66 12.63C10.66 12.11 10.45 11.61 10.08 11.24C9.71 10.87 9.21 10.66 8.69 10.66L3.3 10.66C2.78 10.66 2.28 10.87 1.91 11.24C1.54 11.61 1.33 12.11 1.33 12.63L1.33 16L0 16L0 12.63C0 11.76 0.34 10.91 0.96 10.3C1.58 9.68 2.42 9.33 3.3 9.33L8.69 9.33C9.57 9.33 10.41 9.68 11.03 10.3C11.65 10.91 11.99 11.76 12 12.63L12 16Z" fill="#3A3A3A" fill-opacity="1.000000" fill-rule="nonzero"/>
	<path id="Vector" d="M6 8C5.2 8 4.43 7.76 3.77 7.32C3.12 6.88 2.6 6.26 2.3 5.53C2 4.8 1.92 3.99 2.07 3.22C2.23 2.44 2.61 1.73 3.17 1.17C3.73 0.61 4.44 0.23 5.22 0.07C5.99 -0.08 6.8 0 7.53 0.3C8.26 0.6 8.88 1.11 9.32 1.77C9.76 2.43 10 3.2 10 4C10 5.06 9.57 6.07 8.82 6.82C8.07 7.57 7.06 8 6 8ZM6 1.33C5.47 1.33 4.95 1.49 4.51 1.78C4.08 2.07 3.73 2.49 3.53 2.98C3.33 3.46 3.28 4 3.38 4.52C3.48 5.03 3.74 5.51 4.11 5.88C4.48 6.25 4.96 6.51 5.48 6.61C5.99 6.71 6.53 6.66 7.02 6.46C7.5 6.26 7.92 5.91 8.21 5.48C8.51 5.04 8.66 4.52 8.66 4C8.66 3.29 8.38 2.61 7.88 2.11C7.38 1.61 6.7 1.33 6 1.33Z" fill="#3A3A3A" fill-opacity="1.000000" fill-rule="nonzero"/>
</svg>
