<svg width="24" height="24" viewBox="0 0 24 24" fill="none" xmlns="http://www.w3.org/2000/svg">
<path d="M17 7C17 5.67392 16.4732 4.40215 15.5355 3.46447C14.5979 2.52678 13.3261 2 12 2C10.6739 2 9.40215 2.52678 8.46447 3.46447C7.52678 4.40215 7 5.67392 7 7H2V19.5C2 20.163 2.26339 20.7989 2.73223 21.2678C3.20107 21.7366 3.83696 22 4.5 22H19.5C20.163 22 20.7989 21.7366 21.2678 21.2678C21.7366 20.7989 22 20.163 22 19.5V7H17ZM12 3.66667C12.8841 3.66667 13.7319 4.01786 14.357 4.64298C14.9821 5.2681 15.3333 6.11594 15.3333 7H8.66667C8.66667 6.11594 9.01786 5.2681 9.64298 4.64298C10.2681 4.01786 11.1159 3.66667 12 3.66667ZM20.3333 19.5C20.3333 19.721 20.2455 19.933 20.0893 20.0893C19.933 20.2455 19.721 20.3333 19.5 20.3333H4.5C4.27899 20.3333 4.06702 20.2455 3.91074 20.0893C3.75446 19.933 3.66667 19.721 3.66667 19.5V8.66667H7V10.3333H8.66667V8.66667H15.3333V10.3333H17V8.66667H20.3333V19.5Z" fill="#0D0300"/>
</svg>
