<svg width="24" height="24" viewBox="0 0 24 24" fill="none" xmlns="http://www.w3.org/2000/svg">
<path d="M16.5815 3C15.6435 3.01459 14.726 3.27643 13.9215 3.75909C13.1171 4.24174 12.4543 4.92811 12 5.74889C11.5457 4.92811 10.8829 4.24174 10.0785 3.75909C9.27405 3.27643 8.35651 3.01459 7.41852 3C5.92324 3.06497 4.51444 3.71909 3.49991 4.81946C2.48539 5.91983 1.9476 7.37701 2.00403 8.87263C2.00403 14.5162 11.1304 21.0344 11.5185 21.3109L12 21.6516L12.4815 21.3109C12.8696 21.0361 21.996 14.5162 21.996 8.87263C22.0524 7.37701 21.5146 5.91983 20.5001 4.81946C19.4856 3.71909 18.0768 3.06497 16.5815 3ZM12 19.6008C9.29026 17.5766 3.67003 12.6036 3.67003 8.87263C3.61308 7.81865 3.97521 6.78491 4.67742 5.99687C5.37964 5.20883 6.36497 4.73043 7.41852 4.66599C8.47206 4.73043 9.45739 5.20883 10.1596 5.99687C10.8618 6.78491 11.2239 7.81865 11.167 8.87263H12.833C12.7761 7.81865 13.1382 6.78491 13.8404 5.99687C14.5426 5.20883 15.5279 4.73043 16.5815 4.66599C17.635 4.73043 18.6204 5.20883 19.3226 5.99687C20.0248 6.78491 20.3869 7.81865 20.33 8.87263C20.33 12.6053 14.7097 17.5766 12 19.6008Z" fill="#0D0300"/>
</svg>
