<svg width="16" height="16" viewBox="0 0 16 16" fill="none" xmlns="http://www.w3.org/2000/svg">
<g clip-path="url(#clip0_98_1482)">
<path d="M7.9718 16.005L7.50709 15.6067C6.86643 15.0702 1.27246 10.2391 1.27246 6.7052C1.27246 3.00527 4.27187 0.00585938 7.9718 0.00585938C11.6717 0.00585938 14.6711 3.00527 14.6711 6.7052C14.6711 10.2391 9.07718 15.0703 8.43918 15.6093L7.9718 16.005ZM7.9718 1.45445C5.07327 1.45773 2.72437 3.80664 2.72109 6.70517C2.72109 8.92523 6.16271 12.4717 7.9718 14.095C9.78093 12.4711 13.2225 8.92255 13.2225 6.70517C13.2192 3.80664 10.8704 1.45777 7.9718 1.45445Z" fill="white"/>
<circle cx="8" cy="6" r="2" fill="white"/>
</g>
<defs>
<clipPath id="clip0_98_1482">
<rect width="16" height="16" fill="white"/>
</clipPath>
</defs>
</svg>
