<svg width="24" height="24" viewBox="0 0 24 24" fill="none" xmlns="http://www.w3.org/2000/svg">
<path d="M22 20.8232L16.7886 15.6119C18.1423 13.9562 18.8079 11.8436 18.6477 9.71102C18.4874 7.57843 17.5137 5.589 15.9278 4.15423C14.3418 2.71947 12.2651 1.94915 10.1272 2.00261C7.98926 2.05606 5.95365 2.9292 4.44143 4.44143C2.9292 5.95365 2.05606 7.98926 2.00261 10.1272C1.94915 12.2651 2.71947 14.3418 4.15423 15.9278C5.589 17.5137 7.57843 18.4874 9.71102 18.6477C11.8436 18.8079 13.9562 18.1423 15.6119 16.7886L20.8232 22L22 20.8232ZM10.3489 17.0067C9.03209 17.0067 7.74487 16.6162 6.65 15.8846C5.55514 15.1531 4.70179 14.1132 4.19788 12.8967C3.69397 11.6801 3.56212 10.3415 3.81901 9.05C4.0759 7.75852 4.71 6.57221 5.64111 5.64111C6.57221 4.71 7.75852 4.0759 9.05 3.81901C10.3415 3.56212 11.6801 3.69397 12.8967 4.19788C14.1132 4.70179 15.1531 5.55514 15.8846 6.65C16.6162 7.74487 17.0067 9.03209 17.0067 10.3489C17.0047 12.114 16.3026 13.8063 15.0544 15.0544C13.8063 16.3026 12.114 17.0047 10.3489 17.0067Z" fill="#0D0300"/>
</svg>
