<svg width="24" height="24" viewBox="0 0 24 24" fill="none" xmlns="http://www.w3.org/2000/svg">
<path d="M19.9996 21.9993H18.333V17.7968C18.3323 17.1435 18.0725 16.5171 17.6105 16.0552C17.1485 15.5932 16.5222 15.3333 15.8689 15.3327H9.13072C8.4774 15.3333 7.85103 15.5932 7.38907 16.0552C6.9271 16.5171 6.66728 17.1435 6.66662 17.7968V21.9993H5V17.7968C5.00132 16.7017 5.43695 15.6518 6.21132 14.8774C6.98569 14.103 8.03559 13.6673 9.13072 13.666H15.8689C16.964 13.6673 18.0139 14.103 18.7883 14.8774C19.5626 15.6518 19.9983 16.7017 19.9996 17.7968V21.9993Z" fill="#0D0300"/>
<path d="M12.4999 12C11.511 12 10.5443 11.7068 9.72209 11.1573C8.89987 10.6079 8.25902 9.82705 7.88059 8.91342C7.50217 7.99979 7.40315 6.99446 7.59607 6.02455C7.78899 5.05465 8.26518 4.16373 8.96443 3.46447C9.66367 2.76521 10.5546 2.289 11.5244 2.09608C12.4943 1.90315 13.4996 2.00217 14.4132 2.3806C15.3268 2.75904 16.1077 3.39991 16.6571 4.22215C17.2065 5.0444 17.4997 6.0111 17.4997 7C17.4984 8.32568 16.9712 9.59668 16.0338 10.5341C15.0965 11.4715 13.8255 11.9987 12.4999 12ZM12.4999 3.66667C11.8406 3.66667 11.1962 3.86217 10.648 4.22844C10.0999 4.59471 9.67264 5.1153 9.42035 5.72439C9.16806 6.33348 9.10206 7.0037 9.23067 7.6503C9.35928 8.29691 9.67674 8.89085 10.1429 9.35703C10.6091 9.8232 11.203 10.1407 11.8496 10.2693C12.4962 10.3979 13.1664 10.3319 13.7754 10.0796C14.3845 9.82731 14.9051 9.40007 15.2714 8.8519C15.6376 8.30374 15.8331 7.65927 15.8331 7C15.8331 6.11595 15.4819 5.2681 14.8568 4.64298C14.2317 4.01786 13.3839 3.66667 12.4999 3.66667Z" fill="#0D0300"/>
</svg>
